<svg xmlns="http://www.w3.org/2000/svg" xmlns:xlink="http://www.w3.org/1999/xlink" width="1000" zoomAndPan="magnify" viewBox="0 0 750 749.999995" height="1000" preserveAspectRatio="xMidYMid meet" version="1.0"><defs><clipPath id="4630598f4c"><path d="M 0 342.035156 L 750 342.035156 L 750 750 L 0 750 Z M 0 342.035156 " clip-rule="nonzero"/></clipPath></defs><rect x="-75" width="900" fill="#ffffff" y="-74.999999" height="899.999994" fill-opacity="1"/><rect x="-75" width="900" fill="#ffffff" y="-74.999999" height="899.999994" fill-opacity="1"/><g clip-path="url(#4630598f4c)"><path fill="#000000" d="M 414.949219 348.179688 C 414.070312 347.304688 413.191406 346.425781 412.316406 346.425781 C 407.925781 345.546875 403.535156 343.789062 399.144531 342.914062 C 389.484375 342.035156 379.824219 342.914062 370.167969 343.789062 C 365.777344 344.667969 362.265625 344.667969 357.875 344.667969 C 352.605469 345.546875 346.460938 345.546875 341.191406 346.425781 C 334.167969 347.304688 327.140625 347.304688 320.117188 348.179688 C 307.824219 349.058594 296.410156 350.816406 284.117188 351.695312 C 282.359375 351.695312 280.605469 352.570312 278.847656 352.570312 C 273.578125 353.449219 267.433594 354.328125 262.164062 355.207031 C 256.019531 356.082031 249.871094 356.960938 243.722656 357.839844 C 234.066406 360.472656 224.40625 363.109375 214.75 366.621094 C 203.332031 370.132812 192.796875 373.644531 182.257812 377.15625 C 174.355469 379.792969 166.453125 382.425781 158.550781 385.058594 C 147.136719 389.449219 135.722656 394.71875 124.308594 399.988281 C 112.011719 405.257812 98.84375 411.402344 86.550781 417.550781 C 78.648438 421.0625 71.621094 426.328125 64.597656 429.84375 C 55.816406 433.355469 47.914062 437.746094 40.890625 443.011719 C 31.230469 449.160156 19.816406 453.550781 11.035156 460.574219 C 11.035156 460.574219 10.15625 460.574219 10.15625 461.453125 C 4.011719 464.964844 -2.136719 469.355469 -7.40625 473.746094 C -14.429688 478.136719 -20.574219 483.40625 -27.601562 487.792969 C -33.746094 492.183594 -39.015625 495.699219 -45.160156 499.210938 C -46.039062 499.210938 -46.039062 500.085938 -46.917969 500.085938 C -51.308594 503.601562 -55.699219 507.113281 -60.089844 510.625 C -60.964844 511.503906 -62.722656 512.382812 -63.601562 513.257812 C -65.355469 515.015625 -67.992188 516.769531 -69.746094 518.527344 C -74.136719 522.039062 -78.527344 525.550781 -82.039062 529.941406 C -86.429688 534.332031 -91.699219 537.84375 -96.089844 542.234375 C -100.480469 546.625 -105.75 551.015625 -109.261719 555.40625 C -112.773438 560.675781 -116.285156 565.941406 -122.433594 570.332031 C -125.945312 570.332031 -125.945312 572.089844 -126.820312 572.089844 C -127.699219 573.847656 -129.457031 575.601562 -131.210938 577.359375 C -135.601562 583.503906 -141.75 589.652344 -146.140625 596.675781 C -152.285156 606.335938 -158.433594 615.117188 -162.824219 625.652344 C -167.214844 636.1875 -171.605469 645.847656 -175.996094 656.386719 C -178.628906 662.53125 -181.261719 669.554688 -182.140625 676.582031 C -183.019531 680.972656 -185.652344 685.359375 -185.652344 689.75 C -185.652344 702.042969 -189.164062 713.460938 -187.410156 725.753906 C -187.410156 725.753906 -187.410156 726.628906 -187.410156 726.628906 C -186.53125 736.289062 -186.53125 745.949219 -185.652344 755.605469 C -184.773438 765.265625 -183.898438 774.046875 -181.261719 782.828125 C -181.261719 783.707031 -181.261719 784.582031 -181.261719 784.582031 C -180.382812 793.363281 -178.628906 802.144531 -175.996094 810.046875 C -170.726562 824.976562 -167.214844 840.78125 -159.3125 855.707031 C -155.796875 861.855469 -154.042969 868 -150.53125 874.148438 C -144.382812 884.683594 -138.238281 895.21875 -132.089844 905.757812 C -131.210938 906.636719 -130.335938 907.515625 -129.457031 909.269531 C -128.578125 910.148438 -127.699219 911.902344 -126.820312 912.78125 C -123.308594 918.929688 -119.796875 924.195312 -114.527344 929.464844 C -111.015625 932.976562 -109.261719 936.488281 -106.625 940.003906 C -98.722656 948.78125 -91.699219 956.6875 -83.796875 964.589844 C -80.285156 968.101562 -76.773438 971.613281 -73.257812 974.246094 C -67.992188 978.636719 -62.722656 982.148438 -57.453125 986.539062 C -46.917969 996.199219 -34.625 1004.980469 -22.332031 1012.882812 C -7.402344 1021.664062 7.523438 1029.566406 22.449219 1038.347656 C 25.085938 1040.101562 28.597656 1040.101562 31.230469 1040.980469 C 35.621094 1042.738281 40.011719 1045.371094 44.402344 1047.128906 C 47.914062 1048.882812 52.304688 1050.640625 55.816406 1051.519531 C 60.207031 1053.273438 64.597656 1054.152344 68.988281 1055.03125 C 84.792969 1059.421875 99.71875 1066.445312 115.527344 1068.199219 C 123.429688 1069.078125 131.332031 1071.714844 139.234375 1072.589844 C 145.378906 1073.46875 151.527344 1075.226562 157.671875 1076.105469 C 162.941406 1076.980469 168.210938 1076.980469 173.480469 1076.980469 C 183.136719 1077.859375 191.917969 1079.617188 201.578125 1080.496094 C 207.722656 1081.371094 213.871094 1081.371094 220.894531 1081.371094 C 225.285156 1081.371094 228.796875 1080.496094 233.1875 1080.496094 C 242.847656 1080.496094 251.628906 1082.25 261.285156 1082.25 C 267.433594 1082.25 273.578125 1081.371094 279.726562 1081.371094 C 288.507812 1081.371094 297.289062 1081.371094 306.066406 1081.371094 C 313.09375 1081.371094 319.238281 1080.496094 326.261719 1080.496094 C 331.53125 1079.617188 335.921875 1078.738281 341.191406 1078.738281 C 346.460938 1078.738281 351.726562 1078.738281 356.117188 1076.105469 C 356.996094 1075.226562 358.753906 1076.105469 360.507812 1076.105469 C 362.265625 1076.105469 364.898438 1076.105469 366.65625 1076.980469 C 370.167969 1077.859375 372.800781 1075.226562 375.4375 1075.226562 C 379.824219 1076.105469 384.214844 1074.347656 388.605469 1074.347656 C 391.242188 1074.347656 394.753906 1075.226562 397.386719 1074.347656 C 404.410156 1073.46875 411.4375 1072.589844 418.460938 1070.835938 C 425.484375 1069.957031 433.386719 1068.199219 440.414062 1067.324219 C 445.679688 1066.445312 450.949219 1065.566406 456.21875 1064.6875 C 458.851562 1063.8125 462.363281 1062.054688 465 1062.054688 C 470.265625 1062.054688 475.535156 1062.054688 480.804688 1060.296875 C 486.074219 1058.542969 491.339844 1057.664062 497.488281 1055.90625 C 500.121094 1055.03125 503.632812 1054.152344 507.148438 1054.152344 C 515.925781 1052.394531 524.707031 1050.640625 533.488281 1049.761719 C 534.367188 1049.761719 534.367188 1049.761719 535.246094 1048.882812 C 539.636719 1046.25 544.027344 1044.492188 549.292969 1043.613281 C 552.804688 1042.738281 555.441406 1042.738281 558.953125 1041.859375 C 569.488281 1038.347656 580.027344 1034.835938 590.5625 1031.320312 C 602.855469 1027.808594 614.269531 1021.664062 627.441406 1018.152344 C 633.589844 1016.394531 639.734375 1014.640625 645.882812 1012.003906 C 649.394531 1010.25 653.785156 1009.371094 657.296875 1007.613281 C 668.710938 1002.347656 680.125 997.078125 692.421875 990.929688 C 697.6875 988.296875 702.078125 985.664062 707.347656 983.027344 C 717.007812 977.757812 726.664062 973.371094 737.203125 968.101562 C 742.46875 965.464844 746.859375 963.710938 752.128906 961.078125 C 759.152344 957.5625 766.179688 954.050781 773.203125 950.539062 C 779.347656 947.027344 784.617188 942.636719 791.640625 940.003906 C 794.277344 939.125 796.03125 937.367188 797.789062 935.613281 C 800.421875 933.855469 803.933594 931.222656 806.570312 929.464844 C 811.835938 925.953125 817.105469 922.441406 822.375 918.929688 C 828.519531 914.539062 833.789062 909.269531 839.9375 904.878906 C 847.839844 898.734375 855.742188 892.585938 862.765625 885.5625 C 871.546875 876.78125 878.570312 867.121094 887.351562 859.21875 C 888.230469 858.34375 889.109375 857.464844 889.988281 855.707031 C 891.742188 853.074219 893.5 849.5625 896.132812 846.925781 C 903.15625 839.902344 908.425781 831.121094 913.695312 823.21875 C 918.085938 817.074219 920.71875 809.167969 923.351562 802.144531 C 926.867188 794.242188 927.742188 786.339844 932.132812 779.316406 C 933.011719 778.4375 933.011719 777.558594 933.011719 776.679688 C 934.769531 765.265625 935.644531 752.972656 937.402344 741.558594 C 939.160156 730.144531 937.402344 719.605469 937.402344 708.191406 C 937.402344 699.410156 934.769531 689.75 933.890625 680.972656 C 933.890625 680.09375 933.011719 678.335938 933.011719 677.457031 C 930.378906 673.070312 930.378906 667.800781 930.378906 662.53125 C 930.378906 660.777344 929.5 659.019531 929.5 658.140625 C 927.742188 654.628906 925.109375 651.117188 925.109375 646.726562 C 925.109375 645.847656 925.109375 644.96875 924.230469 644.09375 C 921.597656 640.578125 920.71875 637.066406 918.960938 632.675781 C 914.574219 624.773438 910.183594 616.871094 905.792969 608.96875 C 903.15625 603.699219 899.644531 599.308594 897.011719 593.164062 C 895.253906 588.773438 892.621094 585.261719 889.984375 581.75 C 886.472656 576.480469 880.328125 571.210938 878.570312 564.1875 C 878.570312 563.308594 876.816406 562.429688 876.816406 562.429688 C 875.9375 561.554688 875.058594 561.554688 875.058594 561.554688 C 870.667969 556.285156 866.277344 551.015625 861.011719 544.871094 C 850.472656 533.453125 840.8125 522.039062 829.398438 511.503906 C 828.519531 510.625 827.644531 509.746094 826.765625 508.867188 C 823.253906 505.355469 819.742188 501.84375 815.351562 499.210938 C 808.324219 493.0625 800.421875 486.917969 792.519531 480.769531 C 787.25 476.378906 781.105469 471.988281 775.835938 467.597656 C 774.957031 467.597656 774.957031 466.722656 774.082031 466.722656 C 769.691406 464.085938 764.421875 461.453125 760.03125 457.941406 C 754.761719 454.429688 750.371094 450.914062 745.105469 447.402344 C 742.46875 445.648438 739.835938 443.890625 737.203125 442.136719 C 731.054688 438.621094 724.910156 435.988281 718.761719 432.476562 C 712.617188 428.964844 706.46875 426.328125 700.324219 423.695312 C 683.640625 421.0625 672.222656 414.914062 659.929688 410.523438 C 647.636719 406.132812 634.46875 401.742188 622.175781 398.230469 C 609.003906 394.71875 596.710938 391.207031 583.539062 389.449219 C 567.734375 386.816406 552.804688 383.304688 537 381.546875 C 528.21875 380.667969 518.5625 379.792969 509.78125 378.914062 C 502.757812 378.035156 496.609375 377.15625 490.464844 378.035156 C 488.707031 378.035156 486.949219 378.035156 485.195312 378.035156 C 474.65625 378.035156 464.121094 377.15625 453.585938 377.15625 C 447.4375 377.15625 442.167969 377.15625 436.902344 380.667969 C 430.753906 377.15625 429.875 377.15625 424.609375 378.035156 C 421.09375 378.914062 416.707031 378.914062 413.191406 378.035156 C 410.558594 377.15625 407.046875 378.035156 404.410156 378.914062 C 403.535156 378.914062 401.777344 379.792969 400.898438 379.792969 C 398.265625 379.792969 395.632812 379.792969 393.875 380.667969 C 392.117188 380.667969 389.484375 381.546875 387.730469 381.546875 C 378.070312 380.667969 368.410156 381.546875 358.753906 382.425781 C 356.117188 382.425781 352.605469 382.425781 349.972656 383.304688 C 340.3125 385.058594 330.652344 387.695312 320.117188 386.816406 C 316.605469 386.816406 313.09375 385.9375 309.582031 387.695312 C 308.703125 387.695312 307.824219 387.695312 306.945312 387.695312 C 306.066406 387.695312 304.3125 387.695312 303.433594 387.695312 C 300.800781 390.328125 296.410156 390.328125 292.898438 391.207031 C 290.261719 392.085938 288.507812 392.085938 285.871094 393.839844 C 285.871094 394.71875 283.238281 395.597656 282.359375 395.597656 C 277.089844 394.71875 273.578125 397.351562 269.1875 399.109375 C 263.921875 400.867188 263.921875 401.742188 267.433594 406.132812 C 267.433594 406.132812 267.433594 407.011719 267.433594 407.011719 C 264.796875 407.890625 263.042969 409.644531 260.40625 410.523438 C 261.285156 411.402344 262.164062 412.28125 263.042969 412.28125 C 267.433594 411.402344 270.945312 410.523438 275.335938 409.644531 C 276.214844 409.644531 277.089844 408.769531 277.96875 408.769531 C 283.238281 408.769531 288.507812 407.890625 292.898438 407.890625 C 295.53125 407.890625 297.289062 407.011719 297.289062 404.378906 C 297.289062 401.742188 299.042969 401.742188 300.800781 401.742188 C 302.554688 401.742188 304.3125 401.742188 306.066406 401.742188 C 306.066406 403.5 305.191406 404.378906 305.191406 406.132812 C 310.457031 407.011719 314.847656 407.890625 319.238281 404.378906 C 318.359375 403.5 317.484375 401.742188 316.605469 400.867188 C 320.117188 399.988281 322.75 399.109375 324.507812 402.621094 C 326.261719 405.257812 328.898438 406.132812 331.53125 406.132812 C 338.554688 404.378906 344.703125 403.5 351.726562 403.5 C 363.144531 402.621094 373.679688 401.742188 385.09375 400.867188 C 395.632812 399.988281 406.167969 399.988281 416.707031 399.988281 C 434.265625 399.109375 452.707031 399.109375 470.265625 400.867188 C 478.171875 401.742188 486.949219 401.742188 494.855469 402.621094 C 496.609375 402.621094 499.242188 402.621094 501 402.621094 C 502.757812 402.621094 504.511719 402.621094 506.269531 402.621094 C 509.78125 402.621094 513.292969 403.5 516.804688 403.5 C 519.441406 403.5 522.074219 403.5 524.707031 404.378906 C 531.734375 403.5 537.878906 404.378906 544.902344 405.257812 C 548.417969 405.257812 551.929688 406.132812 554.5625 406.132812 C 563.34375 407.890625 571.246094 410.523438 580.027344 412.28125 C 587.929688 414.035156 596.710938 414.914062 604.613281 417.550781 C 611.636719 420.183594 619.539062 421.0625 627.441406 423.695312 C 637.980469 427.207031 648.515625 430.71875 659.054688 434.230469 C 665.199219 435.988281 670.46875 438.621094 676.613281 440.378906 C 681.003906 442.136719 685.394531 444.769531 690.664062 447.402344 C 697.6875 450.039062 704.714844 453.550781 710.859375 457.0625 C 714.371094 459.695312 718.761719 461.453125 723.152344 463.207031 C 728.421875 465.84375 733.6875 467.597656 738.957031 471.988281 C 741.59375 474.625 745.105469 476.378906 747.738281 478.136719 C 752.128906 480.769531 757.398438 483.40625 761.789062 486.917969 C 769.691406 493.0625 779.347656 497.453125 785.496094 505.355469 C 793.398438 511.503906 801.300781 515.894531 807.449219 522.917969 C 813.59375 529.941406 821.496094 536.089844 827.644531 542.234375 C 831.15625 545.746094 833.789062 549.261719 837.300781 552.773438 C 843.449219 558.039062 848.71875 564.1875 853.109375 571.210938 C 858.375 577.359375 864.523438 583.503906 867.15625 591.40625 C 873.304688 596.675781 874.179688 604.578125 880.328125 609.847656 C 885.597656 619.503906 890.863281 628.285156 895.253906 637.945312 C 897.890625 644.09375 900.523438 650.238281 902.28125 656.386719 C 903.15625 659.019531 904.035156 661.652344 904.914062 665.164062 C 906.667969 670.433594 908.425781 674.824219 909.304688 680.09375 C 910.183594 683.605469 910.183594 687.117188 911.058594 690.628906 C 911.9375 697.652344 913.695312 704.679688 912.816406 711.703125 C 912.816406 716.09375 911.9375 721.363281 911.9375 725.753906 C 912.816406 734.535156 910.183594 743.3125 909.304688 752.09375 C 907.546875 763.511719 904.035156 774.046875 899.644531 784.582031 C 893.5 799.511719 886.472656 812.683594 876.816406 824.976562 C 875.058594 827.609375 872.425781 829.367188 870.667969 832.878906 C 867.15625 839.023438 861.886719 845.171875 856.621094 850.4375 C 852.230469 855.707031 846.960938 860.097656 841.691406 865.367188 C 840.816406 866.246094 839.9375 867.121094 839.9375 868 C 839.058594 870.632812 836.425781 873.269531 833.789062 874.148438 C 829.398438 875.902344 826.765625 878.539062 824.132812 881.171875 C 822.375 882.050781 821.496094 883.804688 819.742188 884.683594 C 816.226562 887.316406 812.714844 889.953125 809.203125 892.585938 C 805.691406 895.222656 802.179688 898.734375 798.667969 901.367188 C 791.640625 905.757812 784.617188 909.269531 778.472656 915.417969 C 776.714844 917.171875 774.960938 918.929688 773.203125 919.808594 C 766.179688 921.5625 760.910156 926.832031 754.761719 930.34375 C 753.007812 931.222656 751.25 931.222656 750.371094 932.101562 C 745.984375 937.367188 738.078125 938.246094 732.8125 942.636719 C 726.664062 947.027344 717.882812 947.90625 711.738281 954.050781 C 711.738281 954.050781 710.859375 954.050781 710.859375 954.929688 C 707.347656 956.6875 703.835938 957.5625 701.199219 959.320312 C 698.566406 961.074219 695.933594 962.832031 693.296875 963.710938 C 688.03125 966.34375 682.761719 968.101562 676.613281 970.734375 C 671.347656 973.371094 666.078125 975.125 660.808594 976.882812 C 658.175781 977.757812 656.417969 979.515625 654.664062 980.394531 C 645.003906 983.90625 637.101562 989.175781 627.441406 991.808594 C 620.417969 993.566406 613.394531 997.957031 605.492188 998.832031 C 604.613281 998.832031 604.613281 998.832031 603.734375 999.710938 C 598.464844 1001.46875 594.074219 1004.101562 588.808594 1005.859375 C 587.050781 1006.734375 584.417969 1007.613281 581.78125 1007.613281 C 576.515625 1009.371094 571.246094 1010.25 566.855469 1012.003906 C 561.585938 1013.761719 555.441406 1015.515625 550.171875 1018.152344 C 545.78125 1019.90625 540.511719 1020.785156 536.125 1022.542969 C 530.855469 1024.296875 525.585938 1026.054688 520.316406 1027.808594 C 509.78125 1030.445312 500.121094 1032.199219 489.585938 1034.835938 C 483.4375 1036.589844 476.414062 1037.46875 470.269531 1039.226562 C 465 1040.101562 460.609375 1040.101562 455.339844 1041.859375 C 450.070312 1043.613281 444.804688 1044.492188 439.535156 1044.492188 C 434.265625 1045.371094 429.875 1045.371094 425.484375 1048.003906 C 424.609375 1048.003906 423.730469 1048.882812 422.851562 1048.882812 C 413.191406 1048.882812 403.535156 1051.519531 394.753906 1052.394531 C 388.605469 1053.273438 383.339844 1054.152344 377.191406 1054.152344 C 373.679688 1054.152344 369.289062 1054.152344 365.777344 1054.152344 C 356.117188 1055.03125 346.460938 1055.90625 336.800781 1056.785156 C 329.777344 1057.664062 321.875 1057.664062 314.847656 1058.542969 C 304.3125 1059.421875 292.898438 1060.296875 282.359375 1060.296875 C 274.457031 1060.296875 265.675781 1060.296875 257.773438 1060.296875 C 248.117188 1060.296875 239.335938 1060.296875 229.675781 1060.296875 C 221.773438 1060.296875 214.75 1059.421875 206.847656 1059.421875 C 198.941406 1058.542969 191.039062 1058.542969 183.136719 1057.664062 C 176.992188 1056.785156 169.96875 1055.90625 163.820312 1055.03125 C 159.429688 1054.152344 155.917969 1054.152344 151.527344 1053.273438 C 140.113281 1051.519531 127.820312 1048.882812 116.40625 1047.128906 C 113.769531 1046.25 111.136719 1046.25 109.378906 1045.371094 C 102.355469 1043.613281 95.332031 1041.859375 88.304688 1040.101562 C 76.890625 1036.589844 65.476562 1033.078125 53.183594 1029.566406 C 51.425781 1028.6875 48.792969 1027.808594 47.035156 1026.933594 C 40.011719 1024.296875 33.867188 1021.664062 26.839844 1019.027344 C 22.449219 1017.273438 18.058594 1014.640625 13.667969 1012.003906 C 7.523438 1008.492188 2.253906 1004.101562 -4.769531 1001.46875 C -12.671875 998.832031 -17.941406 990.929688 -26.722656 989.175781 C -26.722656 989.175781 -27.601562 989.175781 -27.601562 988.296875 C -31.113281 985.664062 -34.625 983.027344 -39.015625 979.515625 C -46.917969 972.492188 -54.820312 966.34375 -63.601562 959.320312 C -67.113281 956.6875 -69.746094 953.171875 -73.257812 950.539062 C -75.894531 947.90625 -78.527344 945.269531 -81.160156 942.636719 C -83.796875 939.125 -87.308594 936.488281 -89.941406 932.976562 C -91.699219 931.222656 -93.457031 930.34375 -94.332031 928.585938 C -101.359375 919.808594 -107.503906 911.902344 -114.527344 903.125 C -118.917969 897.855469 -122.429688 891.707031 -125.945312 885.5625 C -131.210938 876.78125 -135.601562 867.121094 -139.992188 857.464844 C -139.992188 856.585938 -140.871094 855.707031 -140.871094 854.828125 C -141.75 848.683594 -145.261719 843.414062 -147.015625 837.269531 C -148.773438 830.242188 -151.40625 824.097656 -154.042969 817.070312 C -155.796875 810.046875 -158.433594 803.023438 -159.3125 795.121094 C -160.1875 788.972656 -161.945312 782.828125 -161.945312 776.679688 C -162.824219 765.265625 -163.699219 754.730469 -163.699219 743.3125 C -163.699219 733.65625 -163.699219 724.875 -162.824219 715.214844 C -161.945312 701.167969 -157.554688 687.117188 -153.164062 673.066406 C -150.53125 665.164062 -147.015625 658.140625 -143.503906 650.238281 C -141.75 645.847656 -139.113281 641.457031 -136.480469 637.066406 C -132.96875 631.800781 -130.335938 625.652344 -126.820312 620.382812 C -124.1875 615.992188 -120.675781 611.601562 -117.164062 607.210938 C -114.527344 604.578125 -112.773438 600.1875 -110.136719 598.433594 C -104.871094 594.917969 -102.234375 589.652344 -97.84375 585.261719 C -93.457031 580.871094 -89.941406 575.601562 -85.550781 570.332031 C -80.285156 564.1875 -73.257812 558.917969 -67.992188 553.648438 C -63.601562 549.261719 -59.210938 545.746094 -54.820312 542.234375 C -51.308594 538.722656 -47.796875 535.210938 -43.40625 532.578125 C -41.648438 531.699219 -40.769531 529.941406 -39.015625 529.0625 C -37.257812 527.308594 -35.503906 526.429688 -33.746094 524.675781 C -31.988281 523.796875 -30.234375 522.039062 -28.476562 521.160156 C -26.722656 519.40625 -24.964844 517.648438 -23.210938 515.894531 C -12.671875 508.867188 -3.890625 500.964844 6.644531 495.699219 C 8.402344 494.820312 10.15625 493.0625 11.914062 491.308594 C 13.667969 490.429688 15.425781 488.671875 17.183594 487.792969 C 25.960938 482.527344 34.742188 478.136719 42.644531 471.988281 C 47.914062 468.476562 53.183594 463.207031 60.207031 461.453125 C 61.085938 461.453125 61.085938 460.574219 61.085938 460.574219 C 68.109375 456.183594 76.011719 452.671875 83.039062 448.28125 C 86.550781 446.527344 90.941406 443.890625 94.453125 442.136719 C 98.84375 440.378906 102.355469 438.621094 106.746094 436.867188 C 116.40625 432.476562 125.183594 428.085938 134.84375 423.695312 C 145.378906 418.425781 152.40625 414.914062 160.308594 412.28125 C 167.332031 409.644531 175.234375 407.011719 182.257812 404.378906 C 186.648438 402.621094 191.917969 400.867188 196.308594 399.109375 C 205.96875 395.597656 215.625 392.085938 226.164062 389.449219 C 237.578125 385.9375 248.992188 384.183594 260.40625 381.546875 C 264.796875 380.667969 269.1875 379.792969 274.457031 378.914062 C 277.089844 378.035156 280.605469 377.15625 283.238281 377.15625 C 285.871094 377.15625 287.628906 376.28125 290.261719 375.402344 C 298.164062 374.523438 305.191406 372.765625 313.09375 371.890625 C 316.605469 371.890625 319.238281 371.011719 322.75 371.011719 C 326.261719 371.011719 329.777344 370.132812 333.289062 370.132812 C 336.800781 369.253906 341.191406 368.375 344.703125 367.5 C 356.996094 365.742188 370.167969 364.863281 382.460938 363.109375 C 385.972656 363.109375 389.484375 362.230469 392.996094 362.230469 C 392.996094 357.839844 392.996094 357.839844 396.507812 356.960938 C 399.144531 356.960938 400.898438 356.960938 403.535156 356.082031 C 405.289062 355.207031 407.046875 354.328125 408.800781 353.449219 C 410.558594 351.695312 412.316406 349.9375 414.949219 348.179688 Z M 414.949219 348.179688 " fill-opacity="1" fill-rule="nonzero"/><path fill="#000000" d="M 414.949219 348.179688 C 412.316406 350.816406 411.4375 352.570312 409.679688 354.328125 C 407.925781 355.207031 406.167969 356.082031 404.410156 356.960938 C 401.777344 357.839844 400.023438 357.839844 397.386719 357.839844 C 393.875 358.71875 393.875 358.71875 393.875 363.109375 C 390.363281 363.109375 386.851562 363.988281 383.339844 363.988281 C 371.046875 365.742188 357.875 366.621094 345.582031 368.375 C 341.191406 369.253906 337.679688 370.132812 334.167969 371.011719 C 330.652344 371.890625 327.140625 371.890625 323.628906 371.890625 C 320.117188 371.890625 317.484375 372.765625 313.96875 372.765625 C 306.066406 373.644531 299.042969 374.523438 291.140625 376.28125 C 288.507812 376.28125 286.75 377.15625 284.117188 378.035156 C 280.605469 377.15625 277.089844 378.035156 274.457031 378.035156 C 270.066406 378.914062 265.675781 379.792969 260.40625 380.667969 C 248.992188 383.304688 237.578125 385.9375 226.164062 388.574219 C 216.503906 391.207031 205.96875 394.71875 196.308594 398.230469 C 191.917969 399.988281 186.648438 401.742188 182.257812 403.5 C 175.234375 406.132812 167.332031 408.769531 160.308594 411.402344 C 152.40625 414.914062 144.503906 417.550781 136.601562 421.0625 C 126.941406 425.453125 118.160156 429.84375 108.5 434.230469 C 104.109375 435.988281 100.597656 437.746094 96.207031 439.5 C 91.816406 441.257812 88.304688 443.890625 84.792969 445.648438 C 77.769531 450.039062 69.867188 453.550781 62.839844 457.941406 C 62.839844 457.941406 61.964844 458.820312 61.964844 458.820312 C 54.9375 460.574219 50.546875 465.84375 44.402344 469.355469 C 36.5 474.625 27.71875 479.890625 18.9375 485.160156 C 17.183594 486.039062 15.425781 487.792969 13.667969 488.671875 C 11.914062 490.429688 10.15625 491.308594 8.402344 493.0625 C -2.136719 498.332031 -11.792969 507.113281 -21.453125 513.257812 C -23.210938 515.015625 -24.964844 516.769531 -26.722656 518.527344 C -28.476562 520.285156 -30.234375 521.160156 -31.992188 522.039062 C -33.746094 523.796875 -35.503906 524.675781 -37.257812 526.429688 C -39.015625 527.308594 -39.894531 529.0625 -41.648438 529.941406 C -46.039062 532.578125 -49.550781 536.089844 -53.0625 539.601562 C -57.453125 543.113281 -61.84375 547.503906 -66.234375 551.015625 C -72.382812 556.285156 -78.527344 561.554688 -83.796875 567.699219 C -88.1875 572.089844 -91.699219 578.238281 -96.089844 582.625 C -101.359375 587.894531 -104.871094 593.164062 -109.261719 596.675781 C -111.894531 599.308594 -113.652344 602.824219 -116.285156 605.457031 C -119.796875 609.847656 -123.308594 614.238281 -125.945312 618.628906 C -129.457031 623.894531 -132.96875 630.042969 -135.601562 635.3125 C -138.238281 639.703125 -140.871094 644.09375 -142.628906 648.480469 C -146.140625 656.386719 -149.652344 663.410156 -152.285156 671.3125 C -156.675781 685.359375 -160.1875 699.410156 -161.945312 713.460938 C -162.824219 723.117188 -162.824219 731.898438 -162.824219 741.558594 C -162.824219 752.972656 -161.945312 763.511719 -161.066406 774.925781 C -160.1875 781.070312 -158.433594 787.21875 -158.433594 793.363281 C -157.554688 800.390625 -154.921875 808.292969 -153.164062 815.316406 C -151.410156 822.339844 -148.773438 828.488281 -146.140625 835.511719 C -144.382812 841.660156 -139.992188 846.925781 -139.992188 853.074219 C -139.992188 853.953125 -139.113281 854.828125 -139.113281 855.707031 C -134.726562 865.367188 -129.457031 874.148438 -125.066406 883.804688 C -121.554688 889.953125 -118.042969 896.097656 -113.652344 901.367188 C -107.503906 910.148438 -100.480469 918.929688 -93.457031 926.832031 C -91.699219 928.585938 -90.820312 930.34375 -89.066406 931.222656 C -86.429688 934.734375 -82.917969 937.367188 -80.285156 940.878906 C -77.648438 943.515625 -75.015625 946.148438 -72.382812 948.78125 C -68.871094 951.417969 -66.234375 954.929688 -62.722656 957.5625 C -54.820312 964.589844 -46.917969 970.734375 -38.136719 977.757812 C -34.625 980.394531 -31.113281 983.90625 -26.722656 986.539062 C -26.722656 986.539062 -25.84375 987.417969 -25.84375 987.417969 C -17.941406 990.050781 -11.792969 997.078125 -3.890625 999.710938 C 2.253906 1002.34375 8.402344 1006.734375 14.546875 1010.25 C 18.9375 1012.882812 23.328125 1015.515625 27.71875 1017.273438 C 33.863281 1019.90625 40.890625 1022.542969 47.914062 1025.175781 C 49.671875 1026.054688 52.304688 1027.808594 54.0625 1027.808594 C 65.476562 1031.320312 76.890625 1034.835938 89.183594 1038.347656 C 96.207031 1040.101562 103.234375 1041.859375 110.257812 1043.613281 C 112.890625 1044.492188 115.527344 1044.492188 117.28125 1045.371094 C 128.695312 1048.003906 140.988281 1049.761719 152.40625 1051.519531 C 155.917969 1052.394531 160.308594 1052.394531 164.699219 1053.273438 C 170.84375 1054.152344 177.871094 1055.03125 184.015625 1055.90625 C 191.917969 1056.785156 199.820312 1057.664062 207.722656 1057.664062 C 215.625 1058.542969 222.652344 1058.542969 230.554688 1058.542969 C 240.210938 1058.542969 248.992188 1058.542969 258.652344 1058.542969 C 266.554688 1058.542969 275.335938 1058.542969 283.238281 1058.542969 C 293.773438 1058.542969 305.191406 1057.664062 315.726562 1056.785156 C 322.75 1055.90625 330.652344 1055.90625 337.679688 1055.03125 C 347.335938 1054.152344 356.996094 1053.273438 366.65625 1052.394531 C 370.167969 1052.394531 374.558594 1052.394531 378.070312 1052.394531 C 384.214844 1051.519531 389.484375 1051.519531 395.632812 1050.640625 C 405.289062 1049.761719 414.070312 1047.128906 423.730469 1047.128906 C 424.609375 1047.128906 425.484375 1047.128906 426.363281 1046.25 C 430.753906 1044.492188 435.144531 1043.613281 440.414062 1042.738281 C 445.679688 1041.859375 450.949219 1041.859375 456.21875 1040.101562 C 460.609375 1038.347656 465.878906 1038.347656 471.144531 1037.46875 C 477.292969 1036.589844 484.316406 1034.835938 490.464844 1033.078125 C 501 1030.445312 510.660156 1028.6875 521.195312 1026.054688 C 526.464844 1024.296875 531.734375 1022.542969 537 1020.785156 C 541.390625 1019.027344 546.660156 1018.152344 551.050781 1016.394531 C 556.320312 1014.636719 562.464844 1012.882812 567.734375 1010.25 C 573.003906 1008.492188 577.390625 1006.734375 582.660156 1005.859375 C 585.296875 1004.980469 587.050781 1004.980469 589.683594 1004.101562 C 594.953125 1002.34375 599.34375 999.710938 604.613281 997.957031 C 605.492188 997.957031 605.492188 997.078125 606.367188 997.078125 C 614.269531 996.199219 620.417969 991.808594 628.320312 990.050781 C 637.980469 987.417969 646.761719 982.148438 655.539062 978.636719 C 658.175781 977.757812 659.929688 976.003906 661.6875 975.125 C 666.957031 972.492188 672.222656 970.734375 677.492188 968.980469 C 682.761719 966.34375 688.90625 964.589844 694.175781 961.953125 C 696.808594 961.074219 699.445312 959.320312 702.078125 957.5625 C 705.589844 955.808594 709.101562 954.929688 711.738281 953.171875 C 711.738281 953.171875 712.617188 953.171875 712.617188 952.296875 C 717.882812 946.148438 726.664062 945.269531 733.6875 940.878906 C 738.957031 937.367188 745.980469 935.613281 751.25 930.34375 C 752.128906 929.464844 753.886719 929.464844 755.640625 928.585938 C 761.789062 925.953125 767.054688 920.683594 774.082031 918.050781 C 775.835938 917.171875 777.59375 915.417969 779.347656 913.660156 C 785.496094 908.390625 792.519531 904.878906 799.542969 899.609375 C 803.058594 896.976562 806.570312 893.464844 810.082031 890.832031 C 813.59375 888.195312 817.105469 885.5625 820.617188 882.925781 C 822.375 882.050781 823.253906 880.292969 825.007812 879.414062 C 828.519531 876.78125 831.15625 873.269531 834.667969 872.390625 C 837.300781 871.511719 839.9375 869.757812 840.8125 866.246094 C 840.8125 865.367188 841.691406 864.488281 842.570312 863.609375 C 847.839844 858.339844 852.230469 853.953125 857.496094 848.683594 C 862.765625 843.414062 867.15625 838.144531 871.546875 831.121094 C 873.304688 828.488281 875.9375 825.851562 877.691406 823.21875 C 887.351562 810.925781 895.253906 797.753906 900.523438 782.828125 C 904.914062 772.289062 908.425781 761.753906 910.183594 750.339844 C 911.9375 741.558594 913.695312 732.777344 912.816406 723.996094 C 912.816406 719.605469 912.816406 715.214844 913.695312 709.949219 C 914.570312 702.921875 912.816406 695.898438 911.9375 688.875 C 911.058594 685.359375 911.058594 681.847656 910.183594 678.335938 C 909.304688 673.066406 906.667969 668.679688 905.792969 663.410156 C 904.914062 660.773438 904.035156 657.261719 903.15625 654.628906 C 900.523438 648.480469 898.765625 642.335938 896.132812 636.1875 C 891.742188 626.53125 885.597656 617.75 881.207031 608.089844 C 875.9375 602.824219 874.179688 594.917969 868.035156 589.652344 C 865.398438 581.75 859.253906 575.601562 853.984375 569.457031 C 848.71875 563.308594 844.328125 556.285156 838.179688 551.015625 C 834.667969 548.382812 832.035156 543.992188 828.519531 540.480469 C 821.496094 534.332031 814.472656 528.1875 808.324219 521.160156 C 801.300781 514.136719 793.398438 508.867188 786.375 503.601562 C 779.347656 495.699219 770.566406 491.308594 762.664062 485.160156 C 758.273438 481.648438 753.007812 479.015625 748.617188 476.378906 C 745.980469 474.625 742.46875 472.867188 739.835938 470.234375 C 735.445312 465.84375 730.175781 464.085938 724.03125 461.453125 C 719.640625 459.695312 716.128906 457.941406 711.738281 455.304688 C 705.589844 450.914062 698.566406 448.28125 691.542969 445.648438 C 687.152344 443.890625 682.761719 441.257812 677.492188 438.621094 C 672.222656 435.988281 666.078125 434.230469 659.929688 432.476562 C 649.394531 428.964844 638.855469 425.453125 628.320312 421.9375 C 619.539062 421.0625 611.636719 420.183594 603.734375 417.550781 C 595.832031 414.914062 587.929688 414.035156 579.148438 412.28125 C 570.367188 410.523438 562.464844 407.890625 553.683594 406.132812 C 550.171875 405.257812 546.660156 405.257812 544.027344 405.257812 C 537.878906 404.378906 531.734375 403.5 525.585938 403.5 C 522.953125 403.5 520.316406 403.5 517.683594 402.621094 C 514.171875 402.621094 510.660156 401.742188 507.148438 401.742188 C 505.390625 401.742188 503.632812 401.742188 501.878906 401.742188 C 500.121094 401.742188 497.488281 401.742188 495.730469 401.742188 C 487.828125 400.867188 479.046875 400.867188 471.144531 399.988281 C 453.585938 399.109375 435.144531 399.109375 417.582031 399.109375 C 407.046875 399.109375 396.507812 399.109375 385.972656 399.988281 C 373.679688 400.867188 363.144531 401.742188 351.726562 403.5 C 344.703125 403.5 338.554688 404.378906 331.53125 404.378906 C 328.898438 404.378906 325.386719 403.5 324.507812 400.867188 C 322.75 397.351562 320.117188 399.109375 316.605469 399.109375 C 317.484375 400.867188 318.359375 401.742188 319.238281 402.621094 C 314.847656 406.132812 310.457031 406.132812 305.191406 404.378906 C 305.191406 402.621094 306.066406 401.742188 306.066406 399.988281 C 304.3125 399.988281 302.554688 399.988281 300.800781 399.988281 C 299.042969 399.988281 297.289062 400.867188 297.289062 402.621094 C 297.289062 405.257812 295.53125 406.132812 292.898438 406.132812 C 287.628906 406.132812 282.359375 407.011719 277.96875 407.011719 C 277.089844 407.011719 276.214844 407.890625 275.335938 407.890625 C 270.066406 410.523438 266.554688 412.28125 262.164062 412.28125 C 261.285156 412.28125 260.40625 411.402344 259.53125 410.523438 C 262.164062 408.769531 264.796875 407.890625 266.554688 407.011719 C 266.554688 406.132812 266.554688 406.132812 266.554688 406.132812 C 263.921875 400.867188 263.921875 400.867188 268.3125 399.109375 C 272.699219 397.351562 277.089844 395.597656 281.480469 395.597656 C 283.238281 395.597656 284.992188 394.71875 285.871094 393.839844 C 287.628906 392.085938 290.261719 391.207031 292.898438 391.207031 C 296.410156 390.328125 299.921875 390.328125 303.433594 387.695312 C 304.3125 386.816406 306.066406 387.695312 306.945312 387.695312 C 307.824219 387.695312 309.582031 388.574219 309.582031 387.695312 C 313.09375 385.058594 316.605469 385.9375 320.117188 385.9375 C 330.652344 386.816406 339.433594 383.304688 349.972656 382.425781 C 352.605469 381.546875 356.117188 382.425781 358.753906 381.546875 C 368.410156 380.667969 378.070312 379.792969 387.730469 380.667969 C 389.484375 380.667969 391.242188 379.792969 393.875 379.792969 C 396.507812 379.792969 399.144531 379.792969 400.898438 378.914062 C 401.777344 378.914062 403.535156 378.035156 404.414062 378.035156 C 407.046875 378.035156 410.558594 377.15625 413.191406 377.15625 C 416.707031 378.035156 421.09375 378.035156 424.609375 377.15625 C 429.875 377.15625 430.753906 377.15625 436.902344 380.667969 C 441.292969 377.15625 447.4375 376.28125 453.585938 377.15625 C 464.121094 377.15625 474.65625 378.035156 485.195312 378.914062 C 486.949219 378.914062 488.707031 378.914062 490.464844 378.914062 C 496.609375 378.035156 502.757812 378.914062 509.78125 379.792969 C 518.5625 380.667969 528.21875 381.546875 537 382.425781 C 552.804688 383.304688 567.734375 387.695312 583.539062 390.328125 C 596.710938 392.964844 609.882812 395.597656 622.175781 399.109375 C 635.34375 402.621094 647.636719 407.011719 659.929688 411.402344 C 672.222656 415.792969 683.640625 421.9375 695.933594 427.207031 C 702.078125 429.84375 708.226562 433.355469 714.371094 435.988281 C 720.519531 439.5 726.664062 442.136719 732.8125 445.648438 C 735.445312 447.402344 738.078125 449.160156 740.714844 450.914062 C 745.980469 454.429688 750.371094 457.941406 755.640625 461.453125 C 760.03125 464.085938 765.300781 466.722656 769.691406 470.234375 C 770.570312 470.234375 770.570312 471.113281 771.445312 471.113281 C 776.714844 475.5 782.863281 479.890625 788.128906 484.28125 C 796.03125 490.429688 803.058594 496.574219 810.960938 502.722656 C 814.472656 506.234375 817.984375 509.746094 822.375 512.382812 C 823.253906 513.257812 824.132812 514.136719 825.007812 515.015625 C 836.425781 524.675781 846.960938 536.96875 856.621094 548.382812 C 861.011719 553.648438 866.277344 558.917969 870.667969 565.066406 C 871.546875 565.941406 872.425781 565.941406 872.425781 565.941406 C 873.304688 566.820312 874.179688 566.820312 874.179688 567.699219 C 875.9375 574.722656 882.082031 579.113281 885.597656 585.261719 C 888.230469 588.773438 890.863281 592.285156 892.621094 596.675781 C 895.253906 601.945312 898.765625 607.210938 901.402344 612.480469 C 905.792969 620.382812 910.183594 628.285156 914.574219 636.1875 C 916.328125 639.703125 917.207031 644.09375 919.839844 647.605469 C 920.71875 648.480469 920.71875 649.359375 920.71875 650.238281 C 920.71875 654.628906 922.476562 658.140625 925.109375 661.652344 C 925.988281 663.410156 925.988281 664.289062 925.988281 666.042969 C 925.988281 671.3125 926.867188 675.703125 928.621094 680.972656 C 929.5 681.847656 929.5 682.726562 929.5 684.484375 C 931.253906 693.265625 933.011719 702.921875 933.011719 711.703125 C 933.011719 723.117188 934.769531 733.65625 933.011719 745.070312 C 931.253906 756.484375 930.378906 768.777344 928.621094 780.191406 C 928.621094 781.070312 928.621094 781.949219 927.742188 782.828125 C 923.351562 789.851562 921.597656 798.632812 918.960938 805.65625 C 916.328125 812.683594 913.695312 820.585938 909.304688 826.730469 C 904.035156 834.632812 898.765625 843.414062 891.742188 850.4375 C 889.109375 853.074219 887.351562 856.585938 885.597656 859.21875 C 884.71875 860.097656 883.839844 861.855469 882.960938 862.730469 C 874.179688 870.632812 867.15625 880.292969 858.375 889.074219 C 851.351562 896.097656 843.449219 902.246094 835.546875 908.390625 C 829.398438 912.78125 824.132812 918.050781 817.984375 922.441406 C 812.714844 925.953125 807.449219 929.464844 802.179688 932.976562 C 799.542969 934.734375 796.03125 937.367188 793.398438 939.125 C 791.640625 940.878906 789.007812 942.636719 787.25 943.515625 C 780.226562 946.148438 774.957031 950.539062 768.8125 954.050781 C 761.789062 957.5625 754.761719 961.074219 747.738281 964.589844 C 742.46875 967.222656 738.078125 968.980469 732.8125 971.613281 C 723.152344 976.003906 713.492188 981.273438 702.957031 986.539062 C 697.6875 989.175781 693.296875 991.808594 688.03125 994.441406 C 676.613281 999.710938 665.199219 1005.859375 652.90625 1011.125 C 649.394531 1012.882812 645.003906 1013.761719 641.492188 1015.515625 C 635.34375 1018.152344 629.199219 1019.90625 623.050781 1021.664062 C 610.757812 1025.175781 599.34375 1031.320312 586.171875 1034.835938 C 575.636719 1038.347656 565.097656 1041.859375 554.5625 1045.371094 C 551.050781 1046.25 548.417969 1047.128906 544.902344 1047.128906 C 539.636719 1048.003906 535.246094 1049.761719 530.855469 1052.394531 C 530.855469 1052.394531 529.976562 1052.394531 529.097656 1053.273438 C 520.316406 1055.03125 511.535156 1056.785156 502.757812 1057.664062 C 499.242188 1058.542969 496.609375 1059.421875 493.097656 1059.421875 C 487.828125 1061.175781 481.683594 1062.054688 476.414062 1063.808594 C 471.144531 1065.566406 465.878906 1066.445312 460.609375 1065.566406 C 457.972656 1065.566406 455.339844 1067.324219 451.828125 1068.199219 C 446.558594 1069.078125 441.292969 1069.957031 436.023438 1070.835938 C 428.996094 1071.714844 421.09375 1073.46875 414.070312 1074.347656 C 407.046875 1075.226562 400.023438 1076.980469 392.996094 1077.859375 C 390.363281 1077.859375 386.851562 1077.859375 384.214844 1077.859375 C 379.824219 1077.859375 375.4375 1079.617188 371.046875 1078.738281 C 368.410156 1078.738281 364.898438 1080.492188 362.265625 1080.492188 C 360.507812 1080.492188 357.875 1080.492188 356.117188 1079.617188 C 354.363281 1079.617188 352.605469 1078.738281 351.726562 1079.617188 C 349.09375 1079.617188 344.703125 1079.617188 339.433594 1079.617188 C 334.167969 1079.617188 329.777344 1081.371094 324.507812 1081.371094 C 317.484375 1082.25 311.335938 1082.25 304.3125 1082.25 C 295.53125 1082.25 286.75 1082.25 277.96875 1082.25 C 271.824219 1082.25 265.675781 1083.128906 259.53125 1083.128906 C 249.871094 1083.128906 241.089844 1082.25 231.429688 1081.371094 C 227.917969 1081.371094 223.527344 1082.25 219.136719 1082.25 C 212.992188 1082.25 206.84375 1081.371094 199.820312 1081.371094 C 190.164062 1080.492188 181.382812 1078.738281 171.722656 1077.859375 C 166.453125 1076.980469 161.1875 1077.859375 155.917969 1076.980469 C 149.769531 1076.105469 143.625 1075.226562 137.476562 1073.46875 C 129.574219 1071.714844 121.671875 1069.078125 113.769531 1069.078125 C 97.085938 1067.324219 82.160156 1060.296875 67.230469 1055.90625 C 62.839844 1055.03125 58.453125 1053.273438 54.0625 1052.394531 C 50.546875 1051.519531 46.160156 1049.761719 42.644531 1048.003906 C 38.253906 1046.25 33.863281 1043.613281 29.476562 1041.859375 C 26.839844 1040.980469 23.328125 1040.101562 20.695312 1039.226562 C 5.765625 1031.320312 -9.160156 1022.542969 -24.085938 1013.761719 C -36.378906 1005.859375 -48.671875 997.078125 -59.210938 987.417969 C -64.480469 983.027344 -69.746094 979.515625 -75.015625 975.125 C -78.527344 972.492188 -82.039062 968.980469 -85.554688 965.464844 C -93.457031 957.5625 -101.359375 948.78125 -108.382812 940.878906 C -111.015625 937.367188 -113.652344 933.855469 -116.285156 930.34375 C -121.554688 925.074219 -125.066406 919.808594 -128.578125 913.660156 C -129.457031 912.78125 -130.335938 911.027344 -131.210938 910.148438 C -132.089844 909.269531 -132.96875 908.390625 -133.847656 906.636719 C -139.992188 896.097656 -146.140625 885.5625 -152.285156 875.023438 C -155.796875 868.878906 -157.554688 862.730469 -161.066406 856.585938 C -168.96875 842.535156 -172.480469 826.730469 -177.75 810.925781 C -180.382812 803.023438 -182.140625 794.242188 -183.019531 785.460938 C -183.019531 784.582031 -183.019531 783.707031 -183.019531 783.707031 C -185.652344 774.925781 -186.53125 765.265625 -187.410156 756.484375 C -187.410156 745.949219 -187.410156 736.289062 -188.289062 726.628906 C -188.289062 726.628906 -188.289062 725.753906 -188.289062 725.753906 C -189.164062 713.460938 -186.53125 701.167969 -186.53125 689.75 C -186.53125 685.359375 -183.898438 680.972656 -183.019531 676.582031 C -181.261719 669.554688 -179.507812 662.53125 -176.871094 656.386719 C -172.480469 646.726562 -167.214844 636.1875 -163.703125 625.652344 C -159.3125 615.117188 -153.164062 606.335938 -147.019531 596.675781 C -142.628906 589.652344 -136.480469 583.503906 -131.210938 577.359375 C -129.457031 575.601562 -128.578125 573.847656 -126.820312 572.089844 C -125.945312 572.089844 -125.945312 570.332031 -125.066406 570.332031 C -119.796875 566.820312 -116.285156 560.675781 -111.894531 555.40625 C -108.382812 550.136719 -103.113281 546.625 -98.722656 542.234375 C -94.332031 537.84375 -89.066406 534.332031 -84.675781 529.941406 C -80.285156 526.429688 -76.773438 522.039062 -72.382812 518.527344 C -70.625 516.769531 -67.992188 515.015625 -66.234375 513.257812 C -65.355469 512.382812 -63.601562 511.503906 -62.722656 510.625 C -58.332031 507.113281 -53.941406 503.601562 -49.550781 500.085938 C -48.671875 500.085938 -48.671875 499.210938 -47.796875 499.210938 C -41.648438 495.699219 -36.378906 491.308594 -30.234375 487.792969 C -23.210938 483.40625 -17.0625 478.136719 -10.039062 473.746094 C -3.890625 469.355469 2.253906 465.84375 7.523438 461.453125 C 7.523438 461.453125 8.402344 461.453125 8.402344 460.574219 C 17.183594 453.550781 28.597656 449.160156 38.253906 443.011719 C 46.160156 437.746094 54.0625 433.355469 61.964844 429.84375 C 69.867188 426.328125 76.890625 421.0625 83.914062 417.550781 C 96.207031 411.402344 108.5 405.257812 121.671875 399.988281 C 133.085938 394.71875 144.503906 390.328125 155.917969 385.058594 C 163.820312 382.425781 171.722656 379.792969 179.625 377.15625 C 190.164062 373.644531 201.578125 370.132812 212.113281 366.621094 C 221.773438 363.988281 231.433594 360.472656 241.089844 357.839844 C 247.238281 356.082031 253.382812 356.082031 259.53125 355.207031 C 264.796875 354.328125 270.945312 353.449219 276.214844 352.570312 C 277.96875 352.570312 279.726562 351.695312 281.480469 351.695312 C 293.773438 349.9375 305.191406 349.058594 317.484375 348.179688 C 324.507812 347.304688 331.53125 347.304688 338.554688 346.425781 C 343.824219 346.425781 349.972656 345.546875 355.238281 344.667969 C 359.628906 344.667969 363.144531 344.667969 367.53125 343.789062 C 377.191406 342.914062 386.851562 342.035156 396.507812 342.914062 C 400.898438 342.914062 405.289062 344.667969 409.679688 346.425781 C 412.316406 345.546875 414.070312 347.304688 414.949219 348.179688 Z M 269.1875 406.132812 C 270.945312 407.011719 271.824219 407.011719 273.578125 407.011719 C 274.457031 407.011719 275.335938 406.132812 276.214844 406.132812 C 276.214844 405.257812 276.214844 403.5 276.214844 402.621094 C 273.578125 400.867188 270.945312 401.742188 269.1875 406.132812 Z M 286.75 405.257812 C 285.871094 402.621094 284.117188 402.621094 282.359375 405.257812 C 284.992188 405.257812 285.871094 405.257812 286.75 405.257812 Z M 286.75 405.257812 " fill-opacity="1" fill-rule="nonzero"/></g><path fill="#000000" d="M 269.1875 406.132812 C 271.824219 401.742188 273.578125 400.867188 275.335938 402.621094 C 276.214844 403.5 276.214844 404.378906 275.335938 406.132812 C 275.335938 407.011719 273.578125 407.011719 272.699219 407.011719 C 271.824219 407.890625 270.945312 407.011719 269.1875 406.132812 Z M 269.1875 406.132812 " fill-opacity="1" fill-rule="nonzero"/><path fill="#000000" d="M 286.75 405.257812 C 285.871094 405.257812 284.992188 405.257812 282.359375 405.257812 C 284.992188 402.621094 285.871094 402.621094 286.75 405.257812 Z M 286.75 405.257812 " fill-opacity="1" fill-rule="nonzero"/></svg>