<svg xmlns="http://www.w3.org/2000/svg" xmlns:xlink="http://www.w3.org/1999/xlink" width="1000" zoomAndPan="magnify" viewBox="0 0 750 749.999995" height="1000" preserveAspectRatio="xMidYMid meet" version="1.0"><defs><clipPath id="8847186766"><path d="M 456 0 L 750 0 L 750 750 L 456 750 Z M 456 0 " clip-rule="nonzero"/></clipPath><clipPath id="5a2aade39e"><path d="M 415.871094 876.257812 L 494.640625 -258.761719 L 1233.863281 -207.460938 L 1155.089844 927.558594 Z M 415.871094 876.257812 " clip-rule="nonzero"/></clipPath><clipPath id="a14559196f"><path d="M 415.871094 876.257812 L 494.640625 -258.761719 L 1233.863281 -207.460938 L 1155.089844 927.558594 Z M 415.871094 876.257812 " clip-rule="nonzero"/></clipPath><clipPath id="5db4232d95"><path d="M 507 411 L 514 411 L 514 419 L 507 419 Z M 507 411 " clip-rule="nonzero"/></clipPath><clipPath id="d29e5b4435"><path d="M 415.871094 876.257812 L 494.640625 -258.761719 L 1233.863281 -207.460938 L 1155.089844 927.558594 Z M 415.871094 876.257812 " clip-rule="nonzero"/></clipPath><clipPath id="78c5aee7ec"><path d="M 415.871094 876.257812 L 494.640625 -258.761719 L 1233.863281 -207.460938 L 1155.089844 927.558594 Z M 415.871094 876.257812 " clip-rule="nonzero"/></clipPath><clipPath id="d573cfa89e"><path d="M 510 401 L 513 401 L 513 406 L 510 406 Z M 510 401 " clip-rule="nonzero"/></clipPath><clipPath id="005570f6cb"><path d="M 415.871094 876.257812 L 494.640625 -258.761719 L 1233.863281 -207.460938 L 1155.089844 927.558594 Z M 415.871094 876.257812 " clip-rule="nonzero"/></clipPath><clipPath id="6933001a83"><path d="M 415.871094 876.257812 L 494.640625 -258.761719 L 1233.863281 -207.460938 L 1155.089844 927.558594 Z M 415.871094 876.257812 " clip-rule="nonzero"/></clipPath></defs><g clip-path="url(#8847186766)"><g clip-path="url(#5a2aade39e)"><g clip-path="url(#a14559196f)"><path fill="#000000" d="M 464.160156 269.210938 C 463.222656 270.027344 462.289062 270.839844 462.226562 271.71875 C 461.046875 276.035156 458.992188 280.292969 457.8125 284.613281 C 456.265625 294.1875 456.472656 303.882812 456.679688 313.582031 C 457.253906 318.023438 457.007812 321.527344 456.707031 325.90625 C 457.214844 331.222656 456.789062 337.355469 457.300781 342.671875 C 457.691406 349.738281 457.207031 356.746094 457.59375 363.816406 C 457.621094 376.140625 458.582031 387.648438 458.605469 399.972656 C 458.484375 401.726562 459.238281 403.539062 459.117188 405.289062 C 459.628906 410.605469 460.078125 416.796875 460.589844 422.113281 C 461.039062 428.308594 461.492188 434.5 461.941406 440.691406 C 463.902344 450.511719 465.859375 460.328125 468.695312 470.207031 C 471.410156 481.839844 474.183594 492.59375 476.957031 503.347656 C 479.039062 511.414062 481.117188 519.480469 483.199219 527.546875 C 486.789062 539.238281 491.253906 550.988281 495.71875 562.742188 C 500.125 575.371094 505.34375 588.9375 510.625 601.625 C 513.582031 609.75 518.351562 617.125 521.367188 624.375 C 524.265625 633.378906 528.097656 641.566406 532.867188 648.9375 C 538.332031 659 541.917969 670.691406 548.320312 679.9375 C 548.320312 679.9375 548.257812 680.8125 549.132812 680.875 C 552.214844 687.25 556.167969 693.683594 560.183594 699.242188 C 564.074219 706.554688 568.90625 713.050781 572.800781 720.363281 C 576.753906 726.800781 579.894531 732.296875 582.972656 738.671875 C 582.910156 739.550781 583.785156 739.609375 583.726562 740.484375 C 586.925781 745.109375 590.125 749.730469 593.324219 754.355469 C 594.140625 755.292969 594.894531 757.105469 595.710938 758.042969 C 597.339844 759.914062 598.910156 762.664062 600.539062 764.539062 C 603.738281 769.160156 606.941406 773.785156 611.078125 777.589844 C 615.152344 782.277344 618.292969 787.773438 622.367188 792.457031 C 626.445312 797.140625 630.457031 802.703125 634.59375 806.507812 C 639.609375 810.378906 644.621094 814.246094 648.574219 820.683594 C 648.332031 824.1875 650.082031 824.308594 650.023438 825.183594 C 651.714844 826.179688 653.34375 828.054688 654.972656 829.929688 C 660.800781 834.734375 666.507812 841.292969 673.210938 846.15625 C 682.421875 852.957031 690.757812 859.699219 700.964844 864.808594 C 711.171875 869.917969 720.503906 874.964844 730.710938 880.074219 C 736.660156 883.128906 743.484375 886.242188 750.433594 887.605469 C 754.75 888.785156 758.949219 891.714844 763.328125 892.019531 C 775.59375 892.871094 786.738281 897.164062 799.121094 896.265625 C 799.121094 896.265625 799.996094 896.324219 799.996094 896.324219 C 809.695312 896.117188 819.328125 896.785156 829.027344 896.578125 C 838.722656 896.371094 847.542969 896.105469 856.484375 894.085938 C 857.359375 894.144531 858.238281 894.207031 858.238281 894.207031 C 867.058594 893.9375 875.9375 892.792969 884.003906 890.714844 C 899.261719 886.492188 915.273438 884.082031 930.710938 877.230469 C 937.085938 874.152344 943.339844 872.824219 949.714844 869.746094 C 960.652344 864.34375 971.585938 858.941406 982.523438 853.542969 C 983.460938 852.726562 984.398438 851.910156 986.210938 851.15625 C 987.148438 850.339844 988.960938 849.585938 989.898438 848.773438 C 996.273438 845.691406 1001.769531 842.554688 1007.390625 837.664062 C 1011.140625 834.402344 1014.765625 832.894531 1018.449219 830.507812 C 1027.757812 823.234375 1036.128906 816.773438 1044.558594 809.4375 C 1048.304688 806.175781 1052.050781 802.914062 1054.921875 799.59375 C 1059.667969 794.640625 1063.535156 789.628906 1068.28125 784.675781 C 1078.648438 774.835938 1088.257812 763.179688 1096.992188 751.460938 C 1106.785156 737.179688 1115.703125 722.835938 1125.496094 708.550781 C 1127.429688 706.042969 1127.671875 702.539062 1128.730469 699.972656 C 1130.789062 695.714844 1133.71875 691.519531 1135.773438 687.257812 C 1137.769531 683.878906 1139.824219 679.617188 1140.945312 676.175781 C 1143 671.917969 1144.179688 667.597656 1145.359375 663.28125 C 1150.835938 647.816406 1158.875 633.410156 1161.722656 617.765625 C 1163.144531 609.941406 1166.320312 602.242188 1167.742188 594.417969 C 1169.046875 588.347656 1171.222656 582.335938 1172.523438 576.265625 C 1173.765625 571.070312 1174.128906 565.816406 1174.496094 560.558594 C 1176.039062 550.984375 1178.398438 542.347656 1179.945312 532.773438 C 1181.246094 526.699219 1181.671875 520.570312 1182.15625 513.5625 C 1182.460938 509.179688 1181.828125 505.617188 1182.132812 501.238281 C 1182.800781 491.601562 1185.160156 482.964844 1185.828125 473.328125 C 1186.253906 467.195312 1185.804688 461.003906 1186.230469 454.871094 C 1186.839844 446.113281 1187.445312 437.351562 1188.054688 428.59375 C 1188.539062 421.585938 1188.089844 415.390625 1188.578125 408.382812 C 1188.066406 403.066406 1187.492188 398.628906 1187.859375 393.371094 C 1188.222656 388.117188 1188.585938 382.859375 1186.261719 378.296875 C 1185.449219 377.359375 1186.445312 375.671875 1186.566406 373.917969 C 1186.6875 372.167969 1186.871094 369.539062 1187.867188 367.847656 C 1188.988281 364.402344 1186.542969 361.59375 1186.726562 358.964844 C 1187.90625 354.648438 1186.457031 350.144531 1186.761719 345.765625 C 1186.941406 343.136719 1188.0625 339.695312 1187.367188 337.003906 C 1186.980469 329.9375 1186.589844 322.867188 1185.324219 315.738281 C 1184.933594 308.671875 1183.730469 300.664062 1183.339844 293.597656 C 1182.828125 288.28125 1182.316406 282.964844 1181.804688 277.648438 C 1181.113281 274.957031 1179.605469 271.332031 1179.785156 268.707031 C 1180.152344 263.449219 1180.515625 258.195312 1179.128906 252.816406 C 1177.742188 247.4375 1177.230469 242.121094 1175.902344 235.867188 C 1175.210938 233.179688 1174.578125 229.617188 1174.820312 226.113281 C 1173.675781 217.230469 1172.53125 208.347656 1172.265625 199.527344 C 1172.324219 198.652344 1172.324219 198.652344 1171.511719 197.714844 C 1169.1875 193.152344 1167.738281 188.652344 1167.226562 183.335938 C 1166.59375 179.769531 1166.777344 177.144531 1166.144531 173.578125 C 1163.371094 162.824219 1160.59375 152.070312 1157.820312 141.316406 C 1155.167969 128.808594 1149.828125 116.996094 1147.234375 103.613281 C 1145.910156 97.359375 1144.582031 91.105469 1142.378906 84.792969 C 1140.871094 81.164062 1140.300781 76.726562 1138.789062 73.101562 C 1134.324219 61.347656 1129.859375 49.59375 1124.578125 36.90625 C 1122.316406 31.46875 1119.992188 26.90625 1117.726562 21.46875 C 1113.140625 11.46875 1109.429688 1.527344 1104.902344 -9.347656 C 1102.640625 -14.789062 1101.191406 -19.289062 1098.929688 -24.726562 C 1095.914062 -31.976562 1092.894531 -39.226562 1089.878906 -46.480469 C 1086.796875 -52.855469 1082.785156 -58.414062 1080.640625 -65.605469 C 1079.949219 -68.292969 1078.316406 -70.167969 1076.6875 -72.039062 C 1075.117188 -74.789062 1072.734375 -78.476562 1071.164062 -81.226562 C 1068.023438 -86.722656 1064.886719 -92.222656 1061.746094 -97.722656 C 1057.792969 -104.15625 1052.902344 -109.777344 1048.945312 -116.214844 C 1043.363281 -124.523438 1037.777344 -132.832031 1031.257812 -140.328125 C 1023.105469 -149.695312 1013.957031 -157.371094 1006.679688 -166.675781 C 1005.863281 -167.613281 1005.050781 -168.550781 1003.359375 -169.546875 C 1000.851562 -171.484375 997.46875 -173.476562 995.023438 -176.289062 C 988.503906 -183.78125 980.109375 -189.644531 972.589844 -195.449219 C 966.761719 -200.253906 959.058594 -203.429688 952.234375 -206.542969 C 944.59375 -210.59375 936.769531 -212.019531 930.066406 -216.882812 C 929.253906 -217.820312 928.375 -217.882812 927.5 -217.941406 C 916.234375 -220.484375 904.03125 -222.210938 892.765625 -224.753906 C 881.5 -227.296875 870.867188 -226.273438 859.480469 -227.0625 C 850.71875 -227.671875 840.902344 -225.710938 832.082031 -225.445312 C 831.203125 -225.503906 829.390625 -224.75 828.515625 -224.8125 C 823.953125 -222.488281 818.699219 -222.851562 813.441406 -223.21875 C 811.691406 -223.339844 809.878906 -222.585938 809 -222.644531 C 805.375 -221.136719 801.691406 -218.75 797.308594 -219.054688 C 796.433594 -219.117188 795.558594 -219.175781 794.621094 -218.363281 C 790.933594 -215.976562 787.371094 -215.34375 782.867188 -213.898438 C 774.679688 -210.0625 766.492188 -206.230469 758.304688 -202.398438 C 752.867188 -200.136719 748.246094 -196.9375 741.929688 -194.734375 C 737.429688 -193.285156 733.742188 -190.902344 730.058594 -188.515625 C 724.558594 -185.375 718.875 -179.609375 711.746094 -178.34375 C 710.871094 -178.40625 709.875 -176.714844 709.875 -176.714844 C 708.9375 -175.898438 708.875 -175.023438 708.875 -175.023438 C 703.316406 -171.007812 697.757812 -166.992188 691.261719 -162.164062 C 679.144531 -152.441406 667.085938 -143.597656 655.785156 -132.9375 C 654.847656 -132.121094 653.910156 -131.308594 652.976562 -130.492188 C 649.226562 -127.230469 645.480469 -123.972656 642.546875 -119.773438 C 635.929688 -113.191406 629.25 -105.734375 622.574219 -98.273438 C 617.828125 -93.324219 613.023438 -87.496094 608.277344 -82.542969 C 608.21875 -81.667969 607.339844 -81.726562 607.28125 -80.851562 C 604.347656 -76.65625 601.355469 -71.582031 597.546875 -67.445312 C 593.679688 -62.433594 589.871094 -58.296875 586.003906 -53.28125 C 584.070312 -50.777344 582.132812 -48.269531 580.199219 -45.765625 C 576.269531 -39.875 573.21875 -33.925781 569.289062 -28.039062 C 565.359375 -22.148438 562.304688 -16.199219 559.25 -10.25 C 555.46875 6.210938 548.546875 17.171875 543.316406 29.132812 C 538.085938 41.09375 532.792969 53.925781 528.4375 65.949219 C 524.023438 78.84375 519.667969 90.863281 517.003906 103.882812 C 513.28125 119.46875 508.742188 134.117188 505.898438 149.761719 C 504.414062 158.460938 502.867188 168.035156 501.386719 176.734375 C 500.023438 183.679688 498.722656 189.753906 499.171875 195.945312 C 499.050781 197.695312 498.929688 199.449219 498.808594 201.199219 C 498.078125 211.710938 496.472656 222.164062 495.742188 232.675781 C 495.316406 238.804688 494.953125 244.0625 498.089844 249.5625 C 494.160156 255.449219 494.101562 256.324219 494.613281 261.640625 C 495.246094 265.207031 494.941406 269.585938 493.820312 273.03125 C 492.761719 275.597656 493.394531 279.160156 494.089844 281.851562 C 494.027344 282.726562 494.785156 284.539062 494.722656 285.414062 C 494.539062 288.042969 494.359375 290.671875 495.113281 292.484375 C 494.992188 294.234375 495.683594 296.925781 495.5625 298.675781 C 494.019531 308.25 494.226562 317.945312 494.433594 327.644531 C 494.25 330.269531 494.007812 333.773438 494.699219 336.464844 C 495.785156 346.222656 497.742188 356.039062 496.136719 366.488281 C 495.894531 369.992188 494.773438 373.4375 496.285156 377.0625 C 496.222656 377.9375 496.164062 378.8125 496.101562 379.691406 C 496.039062 380.566406 495.917969 382.316406 495.859375 383.195312 C 498.304688 386.003906 498 390.382812 498.632812 393.949219 C 499.328125 396.636719 499.203125 398.390625 500.773438 401.140625 C 501.648438 401.199219 502.34375 403.886719 502.28125 404.765625 C 501.042969 409.960938 503.425781 413.644531 504.875 418.148438 C 506.261719 423.523438 507.136719 423.585938 511.761719 420.386719 C 511.761719 420.386719 512.636719 420.445312 512.636719 420.445312 C 513.332031 423.136719 514.960938 425.007812 515.65625 427.695312 C 516.589844 426.882812 517.527344 426.066406 517.589844 425.191406 C 517.015625 420.75 516.382812 417.183594 515.8125 412.746094 C 515.871094 411.867188 515.058594 410.933594 515.117188 410.054688 C 515.484375 404.800781 514.972656 399.484375 515.277344 395.105469 C 515.457031 392.476562 514.703125 390.664062 512.078125 390.480469 C 509.449219 390.296875 509.570312 388.546875 509.691406 386.792969 C 509.8125 385.042969 509.933594 383.289062 510.054688 381.539062 C 511.808594 381.660156 512.625 382.597656 514.375 382.71875 C 515.617188 377.523438 516.796875 373.203125 513.597656 368.582031 C 512.660156 369.398438 510.847656 370.152344 509.910156 370.964844 C 509.277344 367.402344 508.582031 364.714844 512.207031 363.203125 C 514.957031 361.632812 516.015625 359.066406 516.199219 356.441406 C 514.933594 349.308594 514.484375 343.117188 514.96875 336.109375 C 514.882812 324.660156 514.738281 314.089844 514.652344 302.640625 C 514.503906 292.070312 515.234375 281.558594 515.964844 271.046875 C 516.304688 253.464844 517.582031 235.070312 520.546875 217.671875 C 521.972656 209.847656 522.578125 201.089844 524.003906 193.265625 C 524.125 191.515625 524.308594 188.886719 524.429688 187.136719 C 524.550781 185.382812 524.671875 183.632812 524.792969 181.878906 C 525.035156 178.375 526.15625 174.933594 526.398438 171.429688 C 526.582031 168.800781 526.761719 166.171875 527.820312 163.605469 C 527.433594 156.539062 528.734375 150.464844 530.097656 143.519531 C 530.339844 140.015625 531.457031 136.570312 531.640625 133.945312 C 534 125.304688 537.175781 117.605469 539.535156 108.96875 C 541.835938 101.203125 543.316406 92.507812 546.492188 84.804688 C 549.609375 77.980469 551.03125 70.15625 554.207031 62.453125 C 558.4375 52.1875 562.671875 41.917969 566.90625 31.648438 C 569.082031 25.640625 572.074219 20.566406 574.253906 14.554688 C 576.308594 10.296875 579.242188 6.101562 582.234375 1.027344 C 585.347656 -5.796875 589.339844 -12.5625 593.269531 -18.453125 C 596.140625 -21.773438 598.195312 -26.03125 600.25 -30.289062 C 603.242188 -35.363281 605.359375 -40.496094 610.105469 -45.449219 C 612.914062 -47.894531 614.910156 -51.277344 616.84375 -53.78125 C 619.777344 -57.980469 622.769531 -63.054688 626.578125 -67.191406 C 633.253906 -74.648438 638.304688 -83.980469 646.613281 -89.566406 C 653.292969 -97.023438 658.21875 -104.601562 665.652344 -110.25 C 673.085938 -115.894531 679.765625 -123.351562 686.320312 -129.058594 C 690.070312 -132.320312 693.753906 -134.703125 697.503906 -137.964844 C 703.183594 -143.730469 709.679688 -148.5625 716.992188 -152.453125 C 723.488281 -157.285156 730.046875 -162.992188 738.113281 -165.070312 C 743.792969 -170.839844 751.738281 -171.167969 757.417969 -176.933594 C 767.417969 -181.523438 776.542969 -186.171875 786.484375 -189.882812 C 792.796875 -192.082031 799.113281 -194.285156 805.363281 -195.613281 C 808.054688 -196.304688 810.742188 -197 814.308594 -197.632812 C 819.683594 -199.019531 824.1875 -200.46875 829.503906 -200.980469 C 833.066406 -201.613281 836.570312 -201.367188 840.136719 -202 C 847.203125 -202.390625 854.332031 -203.65625 861.28125 -202.292969 C 865.660156 -201.988281 870.855469 -200.75 875.234375 -200.445312 C 884.054688 -200.714844 892.632812 -197.476562 901.332031 -195.992188 C 912.597656 -193.453125 922.867188 -189.21875 933.074219 -184.109375 C 947.539062 -176.941406 960.191406 -169.023438 971.789062 -158.535156 C 974.292969 -156.601562 975.863281 -153.851562 979.246094 -151.859375 C 985.132812 -147.929688 990.902344 -142.246094 995.792969 -136.625 C 1000.742188 -131.882812 1004.757812 -126.324219 1009.648438 -120.703125 C 1010.464844 -119.765625 1011.28125 -118.828125 1012.15625 -118.769531 C 1014.722656 -117.710938 1017.167969 -114.898438 1017.863281 -112.210938 C 1019.3125 -107.707031 1021.757812 -104.898438 1024.203125 -102.089844 C 1024.957031 -100.277344 1026.648438 -99.277344 1027.402344 -97.464844 C 1029.785156 -93.777344 1032.171875 -90.09375 1034.554688 -86.40625 C 1036.941406 -82.71875 1040.203125 -78.972656 1042.585938 -75.289062 C 1046.480469 -67.976562 1049.496094 -60.722656 1055.203125 -54.167969 C 1056.832031 -52.292969 1058.464844 -50.421875 1059.21875 -48.609375 C 1060.484375 -41.476562 1065.375 -35.859375 1068.453125 -29.484375 C 1069.207031 -27.671875 1069.085938 -25.917969 1069.902344 -24.980469 C 1074.851562 -20.238281 1075.183594 -12.292969 1079.195312 -6.730469 C 1083.152344 -0.296875 1083.417969 8.523438 1089.125 15.082031 C 1089.125 15.082031 1089.066406 15.957031 1089.941406 16.019531 C 1091.449219 19.644531 1092.082031 23.207031 1093.652344 25.957031 C 1095.222656 28.707031 1096.789062 31.457031 1097.484375 34.144531 C 1099.746094 39.582031 1101.132812 44.960938 1103.335938 51.273438 C 1105.601562 56.714844 1106.988281 62.089844 1108.375 67.46875 C 1109.066406 70.15625 1110.699219 72.03125 1111.453125 73.84375 C 1114.289062 83.722656 1118.996094 91.96875 1120.957031 101.789062 C 1122.222656 108.917969 1126.113281 116.230469 1126.445312 124.171875 C 1126.382812 125.050781 1126.382812 125.050781 1127.199219 125.984375 C 1128.585938 131.363281 1130.910156 135.925781 1132.296875 141.304688 C 1133.050781 143.117188 1133.746094 145.804688 1133.5625 148.433594 C 1134.949219 153.808594 1135.460938 159.125 1136.910156 163.628906 C 1138.296875 169.003906 1139.621094 175.257812 1141.886719 180.695312 C 1143.332031 185.199219 1143.84375 190.515625 1145.292969 195.015625 C 1146.679688 200.394531 1148.066406 205.769531 1149.453125 211.148438 C 1151.351562 221.84375 1152.433594 231.597656 1154.332031 242.292969 C 1155.660156 248.546875 1156.050781 255.617188 1157.375 261.867188 C 1157.886719 267.183594 1157.582031 271.566406 1158.96875 276.941406 C 1160.359375 282.320312 1160.867188 287.636719 1160.503906 292.890625 C 1161.015625 298.207031 1160.710938 302.589844 1163.035156 307.152344 C 1162.972656 308.027344 1163.789062 308.964844 1163.730469 309.839844 C 1163.058594 319.476562 1165.019531 329.292969 1165.289062 338.113281 C 1165.738281 344.304688 1166.25 349.621094 1165.824219 355.753906 C 1165.582031 359.257812 1165.277344 363.636719 1165.03125 367.140625 C 1165.238281 376.839844 1165.449219 386.535156 1165.65625 396.230469 C 1166.042969 403.300781 1165.496094 411.183594 1165.886719 418.253906 C 1166.035156 428.824219 1166.117188 440.273438 1165.390625 450.785156 C 1164.84375 458.667969 1164.234375 467.429688 1163.6875 475.3125 C 1163.019531 484.945312 1162.410156 493.707031 1161.742188 503.34375 C 1161.195312 511.226562 1159.832031 518.171875 1159.285156 526.058594 C 1157.863281 533.878906 1157.316406 541.761719 1155.890625 549.585938 C 1154.589844 555.65625 1153.226562 562.605469 1151.925781 568.675781 C 1150.746094 572.992188 1150.503906 576.496094 1149.324219 580.816406 C 1146.78125 592.082031 1143.300781 604.164062 1140.761719 615.429688 C 1139.703125 617.996094 1139.519531 620.625 1138.523438 622.316406 C 1136.285156 629.203125 1134.046875 636.089844 1131.808594 642.976562 C 1127.511719 654.117188 1123.21875 665.261719 1118.863281 677.285156 C 1117.867188 678.976562 1116.808594 681.542969 1115.808594 683.234375 C 1112.695312 690.058594 1109.640625 696.007812 1106.527344 702.832031 C 1104.472656 707.089844 1101.539062 711.289062 1098.609375 715.488281 C 1094.679688 721.375 1089.933594 726.328125 1086.820312 733.152344 C 1083.644531 740.851562 1075.398438 745.5625 1073.035156 754.199219 C 1073.035156 754.199219 1072.976562 755.078125 1072.101562 755.015625 C 1069.230469 758.335938 1066.359375 761.660156 1062.550781 765.796875 C 1054.996094 773.191406 1048.316406 780.652344 1040.699219 788.925781 C 1037.828125 792.246094 1034.144531 794.628906 1031.273438 797.953125 C 1028.460938 800.398438 1025.652344 802.84375 1022.839844 805.289062 C 1019.15625 807.671875 1016.285156 810.996094 1012.597656 813.378906 C 1010.726562 815.007812 1009.726562 816.699219 1007.914062 817.453125 C 998.667969 823.855469 990.359375 829.4375 981.113281 835.839844 C 975.554688 839.855469 969.179688 842.933594 962.804688 846.011719 C 953.679688 850.660156 943.738281 854.371094 933.800781 858.082031 C 932.925781 858.019531 931.988281 858.835938 931.109375 858.773438 C 924.917969 859.226562 919.417969 862.363281 913.167969 863.691406 C 906.035156 864.957031 899.722656 867.160156 892.53125 869.300781 C 885.402344 870.566406 878.214844 872.707031 870.269531 873.035156 C 864.078125 873.484375 857.824219 874.8125 851.691406 874.386719 C 840.242188 874.472656 829.671875 874.621094 818.28125 873.828125 C 808.648438 873.160156 799.886719 872.550781 790.3125 871.007812 C 776.359375 869.160156 762.648438 863.804688 748.933594 858.453125 C 741.234375 855.277344 734.46875 851.289062 726.828125 847.238281 C 722.570312 845.183594 718.371094 842.25 714.175781 839.316406 C 709.164062 835.449219 703.214844 832.394531 698.199219 828.527344 C 694.003906 825.59375 689.867188 821.789062 685.730469 817.980469 C 683.285156 815.167969 679.027344 813.113281 677.457031 810.363281 C 674.316406 804.863281 669.246094 801.871094 665.167969 797.1875 C 661.09375 792.503906 656.078125 788.636719 651.128906 783.890625 C 645.359375 778.210938 640.589844 770.835938 635.699219 765.21875 C 631.625 760.535156 628.425781 755.910156 625.226562 751.289062 C 621.964844 747.539062 618.703125 743.792969 616.378906 739.230469 C 615.625 737.417969 613.933594 736.421875 613.179688 734.609375 C 611.550781 732.734375 610.796875 730.921875 609.164062 729.046875 C 608.410156 727.234375 606.78125 725.363281 606.027344 723.550781 C 604.394531 721.675781 602.765625 719.800781 601.132812 717.929688 C 594.855469 706.929688 587.582031 697.625 583.054688 686.746094 C 582.300781 684.933594 580.667969 683.0625 579.039062 681.1875 C 578.285156 679.375 576.65625 677.5 575.898438 675.6875 C 571.253906 666.566406 567.480469 657.5 561.894531 649.191406 C 558.757812 643.691406 553.867188 638.074219 552.601562 630.941406 C 552.660156 630.066406 551.785156 630.007812 551.785156 630.007812 C 547.890625 622.695312 544.933594 614.566406 541.042969 607.257812 C 539.53125 603.628906 537.207031 599.066406 535.699219 595.441406 C 534.25 590.941406 532.742188 587.316406 531.296875 582.816406 C 527.582031 572.875 523.8125 563.8125 520.101562 553.871094 C 515.574219 542.996094 512.558594 535.746094 510.476562 527.679688 C 508.335938 520.488281 506.253906 512.421875 504.113281 505.230469 C 502.664062 500.730469 501.277344 495.355469 499.828125 490.851562 C 496.992188 480.972656 494.160156 471.09375 492.261719 460.402344 C 489.546875 448.769531 488.585938 437.261719 486.746094 425.691406 C 486.175781 421.25 485.605469 416.808594 485.09375 411.492188 C 484.398438 408.804688 483.765625 405.238281 483.949219 402.613281 C 484.132812 399.984375 483.375 398.171875 482.683594 395.480469 C 482.355469 387.539062 481.089844 380.410156 480.757812 372.464844 C 481.003906 368.960938 480.308594 366.273438 480.550781 362.769531 C 480.796875 359.265625 480.164062 355.699219 480.40625 352.195312 C 479.773438 348.628906 479.203125 344.191406 478.570312 340.625 C 477.667969 328.242188 477.703125 315.039062 476.804688 302.65625 C 477.046875 299.152344 476.414062 295.585938 476.65625 292.082031 C 472.277344 291.777344 472.277344 291.777344 471.644531 288.214844 C 471.824219 285.585938 471.949219 283.835938 471.253906 281.144531 C 470.5 279.332031 469.746094 277.519531 468.992188 275.707031 C 467.359375 273.832031 465.730469 271.960938 464.160156 269.210938 Z M 464.160156 269.210938 " fill-opacity="1" fill-rule="nonzero"/><path fill="#000000" d="M 464.160156 269.210938 C 466.605469 272.019531 468.296875 273.019531 469.925781 274.890625 C 470.683594 276.703125 471.4375 278.515625 472.191406 280.332031 C 472.882812 283.019531 472.761719 284.769531 472.582031 287.398438 C 473.214844 290.964844 473.214844 290.964844 477.59375 291.265625 C 477.351562 294.769531 477.984375 298.335938 477.738281 301.839844 C 478.640625 314.226562 478.605469 327.425781 479.503906 339.808594 C 480.078125 344.25 480.710938 347.816406 481.34375 351.378906 C 481.976562 354.945312 481.734375 358.449219 481.488281 361.953125 C 481.246094 365.457031 481.941406 368.144531 481.695312 371.648438 C 482.023438 379.59375 482.414062 386.660156 483.621094 394.667969 C 483.4375 397.296875 484.191406 399.109375 484.886719 401.796875 C 483.765625 405.238281 484.398438 408.804688 484.214844 411.433594 C 484.789062 415.871094 485.359375 420.3125 485.871094 425.628906 C 487.710938 437.199219 489.546875 448.769531 491.382812 460.339844 C 493.34375 470.15625 496.117188 480.914062 498.953125 490.792969 C 500.402344 495.292969 501.789062 500.671875 503.238281 505.171875 C 505.378906 512.363281 507.457031 520.429688 509.601562 527.617188 C 512.558594 535.746094 514.636719 543.8125 517.59375 551.9375 C 521.304688 561.878906 525.078125 570.941406 528.789062 580.878906 C 530.238281 585.382812 531.746094 589.007812 533.191406 593.507812 C 534.640625 598.011719 537.027344 601.695312 538.535156 605.320312 C 542.429688 612.632812 545.386719 620.761719 549.277344 628.070312 C 549.277344 628.070312 550.09375 629.007812 550.09375 629.007812 C 551.359375 636.136719 556.3125 640.882812 559.390625 647.257812 C 564.097656 655.507812 568.746094 664.628906 573.394531 673.753906 C 574.148438 675.566406 575.777344 677.441406 576.53125 679.253906 C 578.164062 681.128906 578.917969 682.941406 580.546875 684.8125 C 585.074219 695.691406 593.164062 705.933594 598.628906 715.996094 C 600.257812 717.867188 601.890625 719.742188 603.519531 721.617188 C 605.148438 723.488281 605.902344 725.300781 606.660156 727.113281 C 608.289062 728.988281 609.042969 730.800781 610.671875 732.675781 C 611.425781 734.488281 613.117188 735.484375 613.875 737.296875 C 616.195312 741.859375 619.457031 745.605469 622.71875 749.351562 C 625.917969 753.976562 629.996094 758.660156 633.195312 763.285156 C 638.023438 769.78125 642.855469 776.277344 648.621094 781.957031 C 652.699219 786.640625 658.585938 790.570312 662.660156 795.253906 C 667.554688 800.875 672.566406 804.742188 675.765625 809.367188 C 678.210938 812.175781 681.59375 814.171875 684.039062 816.984375 C 688.175781 820.789062 692.3125 824.597656 696.507812 827.53125 C 701.523438 831.398438 707.410156 835.328125 712.484375 838.320312 C 716.683594 841.253906 720.878906 844.183594 725.136719 846.242188 C 732.777344 850.292969 739.542969 854.28125 747.242188 857.457031 C 760.957031 862.808594 774.726562 867.285156 788.621094 870.011719 C 798.195312 871.554688 806.957031 872.164062 816.589844 872.832031 C 827.980469 873.621094 838.550781 873.476562 850 873.390625 C 856.191406 872.9375 862.445312 871.613281 868.578125 872.039062 C 875.644531 871.648438 883.710938 869.566406 890.839844 868.300781 C 897.972656 867.035156 904.285156 864.835938 911.476562 862.691406 C 917.726562 861.367188 923.289062 857.351562 929.421875 857.777344 C 930.296875 857.839844 931.234375 857.023438 932.109375 857.082031 C 942.046875 853.371094 951.171875 848.726562 961.113281 845.011719 C 967.488281 841.933594 973.863281 838.855469 979.421875 834.84375 C 988.605469 829.316406 997.851562 822.917969 1006.222656 816.457031 C 1008.097656 814.828125 1009.910156 814.074219 1010.90625 812.382812 C 1014.59375 809.996094 1017.464844 806.675781 1021.152344 804.289062 C 1023.960938 801.84375 1026.769531 799.398438 1029.582031 796.953125 C 1032.453125 793.632812 1036.136719 791.25 1039.007812 787.925781 C 1046.566406 780.527344 1053.242188 773.070312 1060.859375 764.796875 C 1063.730469 761.476562 1067.476562 758.214844 1070.410156 754.019531 C 1070.410156 754.019531 1071.347656 753.203125 1071.347656 753.203125 C 1074.519531 745.5 1081.953125 739.855469 1085.128906 732.15625 C 1088.183594 726.207031 1092.988281 720.378906 1096.917969 714.488281 C 1099.847656 710.292969 1102.78125 706.09375 1104.835938 701.835938 C 1107.890625 695.886719 1111.003906 689.0625 1114.117188 682.234375 C 1115.117188 680.542969 1117.050781 678.039062 1117.171875 676.285156 C 1121.464844 665.140625 1125.761719 653.996094 1130.117188 641.976562 C 1132.355469 635.089844 1134.59375 628.207031 1136.832031 621.320312 C 1137.890625 618.75 1138.070312 616.125 1139.070312 614.433594 C 1142.488281 603.226562 1145.089844 591.085938 1147.632812 579.820312 C 1148.75 576.375 1149.054688 571.996094 1150.234375 567.679688 C 1151.535156 561.605469 1152.898438 554.660156 1154.199219 548.589844 C 1155.625 540.765625 1157.046875 532.941406 1157.59375 525.058594 C 1159.015625 517.238281 1159.503906 510.230469 1160.050781 502.34375 C 1160.71875 492.710938 1161.328125 483.949219 1161.996094 474.3125 C 1162.542969 466.429688 1163.152344 457.671875 1163.699219 449.789062 C 1164.425781 439.277344 1164.34375 427.828125 1164.195312 417.253906 C 1163.804688 410.1875 1164.351562 402.300781 1163.964844 395.234375 C 1163.757812 385.539062 1163.550781 375.839844 1163.34375 366.144531 C 1163.585938 362.640625 1163.890625 358.261719 1164.132812 354.757812 C 1163.683594 348.566406 1164.046875 343.308594 1163.597656 337.117188 C 1163.390625 327.421875 1161.367188 318.476562 1162.039062 308.84375 C 1162.097656 307.964844 1162.160156 307.089844 1161.34375 306.152344 C 1159.894531 301.652344 1159.324219 297.210938 1158.8125 291.894531 C 1158.300781 286.578125 1158.667969 281.324219 1157.277344 275.945312 C 1155.832031 271.445312 1156.195312 266.1875 1155.683594 260.871094 C 1155.234375 254.679688 1153.96875 247.550781 1152.640625 241.296875 C 1150.742188 230.601562 1149.660156 220.84375 1147.761719 210.152344 C 1146.375 204.773438 1144.988281 199.394531 1143.601562 194.019531 C 1142.152344 189.515625 1141.640625 184.199219 1140.195312 179.699219 C 1138.804688 174.320312 1137.480469 168.070312 1135.21875 162.628906 C 1133.828125 157.253906 1132.382812 152.75 1131.871094 147.433594 C 1131.175781 144.746094 1131.296875 142.996094 1130.605469 140.304688 C 1129.21875 134.929688 1126.894531 130.367188 1125.507812 124.988281 C 1125.566406 124.113281 1124.691406 124.050781 1124.753906 123.175781 C 1124.421875 115.230469 1120.46875 108.796875 1119.265625 100.789062 C 1117.304688 90.972656 1112.65625 81.847656 1109.761719 72.84375 C 1109.066406 70.15625 1107.4375 68.285156 1106.683594 66.46875 C 1104.421875 61.03125 1103.03125 55.65625 1101.644531 50.277344 C 1099.382812 44.839844 1098.054688 38.585938 1095.792969 33.148438 C 1095.097656 30.460938 1093.53125 27.710938 1091.960938 24.960938 C 1090.453125 21.335938 1089.820312 17.769531 1088.25 15.019531 C 1088.25 15.019531 1088.308594 14.144531 1087.433594 14.082031 C 1081.667969 8.402344 1081.398438 -0.417969 1077.503906 -7.730469 C 1074.367188 -13.230469 1073.101562 -20.359375 1068.210938 -25.976562 C 1067.394531 -26.914062 1067.515625 -28.667969 1066.761719 -30.480469 C 1064.558594 -36.792969 1059.667969 -42.414062 1057.527344 -49.605469 C 1056.773438 -51.417969 1055.140625 -53.289062 1053.511719 -55.164062 C 1048.683594 -61.660156 1045.664062 -68.910156 1040.894531 -76.285156 C 1038.511719 -79.96875 1035.25 -83.71875 1032.863281 -87.402344 C 1030.480469 -91.089844 1028.09375 -94.777344 1025.710938 -98.460938 C 1024.957031 -100.273438 1023.265625 -101.273438 1022.511719 -103.085938 C 1020.125 -106.773438 1016.804688 -109.644531 1016.171875 -113.207031 C 1015.476562 -115.894531 1013.910156 -118.644531 1010.464844 -119.765625 C 1009.589844 -119.824219 1008.773438 -120.761719 1007.957031 -121.699219 C 1003.066406 -127.320312 998.992188 -132.003906 994.101562 -137.625 C 989.210938 -143.246094 984.257812 -147.988281 977.554688 -152.855469 C 975.046875 -154.789062 972.601562 -157.601562 970.097656 -159.535156 C 958.5 -170.019531 945.910156 -178.816406 931.382812 -185.105469 C 921.175781 -190.214844 910.90625 -194.449219 899.640625 -196.992188 C 891.003906 -199.351562 882.363281 -201.710938 873.542969 -201.441406 C 869.164062 -201.746094 864.785156 -202.050781 859.589844 -203.292969 C 852.640625 -204.652344 845.511719 -203.386719 838.445312 -203 C 834.878906 -202.367188 831.375 -202.609375 827.8125 -201.976562 C 822.496094 -201.464844 817.933594 -199.140625 812.617188 -198.628906 C 809.925781 -197.9375 806.363281 -197.304688 803.671875 -196.609375 C 797.359375 -194.40625 791.105469 -193.082031 784.792969 -190.878906 C 774.851562 -187.167969 765.667969 -181.644531 755.726562 -177.933594 C 750.105469 -173.042969 742.101562 -171.835938 736.421875 -166.070312 C 728.355469 -163.988281 721.796875 -158.28125 715.300781 -153.453125 C 708.804688 -148.621094 701.492188 -144.730469 695.8125 -138.960938 C 692.941406 -135.640625 688.378906 -133.316406 684.628906 -130.054688 C 678.011719 -123.472656 671.394531 -116.890625 663.960938 -111.246094 C 656.46875 -104.722656 650.664062 -97.207031 644.921875 -90.5625 C 636.550781 -84.101562 631.5625 -75.644531 624.886719 -68.1875 C 621.078125 -64.050781 618.085938 -58.976562 615.152344 -54.78125 C 613.21875 -52.273438 611.222656 -48.890625 608.414062 -46.445312 C 603.730469 -42.371094 601.613281 -37.234375 598.558594 -31.285156 C 596.503906 -27.027344 594.507812 -23.644531 591.578125 -19.449219 C 586.769531 -13.621094 583.65625 -6.796875 580.542969 0.03125 C 578.488281 4.289062 575.554688 8.484375 572.5625 13.558594 C 569.570312 18.632812 567.390625 24.640625 565.214844 30.652344 C 560.980469 40.921875 556.746094 51.1875 552.515625 61.457031 C 551.03125 70.15625 549.609375 77.980469 546.433594 85.679688 C 543.257812 93.382812 541.835938 101.203125 539.472656 109.84375 C 537.113281 118.480469 533.941406 126.183594 531.578125 134.820312 C 530.460938 138.261719 530.21875 141.765625 530.035156 144.394531 C 528.734375 150.464844 527.433594 156.539062 527.007812 162.667969 C 526.824219 165.296875 526.640625 167.925781 525.582031 170.492188 C 525.339844 173.996094 524.222656 177.4375 523.976562 180.941406 C 523.855469 182.695312 523.734375 184.445312 523.613281 186.199219 C 523.492188 187.949219 523.308594 190.578125 523.1875 192.328125 C 521.765625 200.152344 521.15625 208.914062 519.734375 216.734375 C 517.640625 234.195312 516.363281 252.589844 515.148438 270.109375 C 514.417969 280.621094 513.691406 291.132812 513.835938 301.703125 C 513.863281 314.027344 514.007812 324.601562 514.96875 336.109375 C 514.484375 343.117188 514.933594 349.308594 514.445312 356.316406 C 514.265625 358.945312 513.144531 362.390625 510.457031 363.082031 C 506.832031 364.589844 508.402344 367.339844 508.15625 370.84375 C 509.96875 370.089844 510.90625 369.273438 511.84375 368.460938 C 515.042969 373.082031 514.738281 377.464844 512.625 382.597656 C 510.871094 382.476562 510.054688 381.539062 508.304688 381.417969 C 508.183594 383.167969 508.0625 384.921875 507.941406 386.671875 C 507.816406 388.425781 508.574219 390.238281 510.324219 390.359375 C 512.953125 390.542969 513.707031 392.355469 513.523438 394.980469 C 513.160156 400.238281 513.671875 405.554688 513.367188 409.933594 C 513.304688 410.808594 514.121094 411.746094 514.058594 412.625 C 516.324219 418.0625 517.832031 421.6875 517.527344 426.066406 C 517.46875 426.941406 516.53125 427.757812 515.59375 428.574219 C 514.023438 425.824219 513.332031 423.136719 512.578125 421.320312 C 511.699219 421.261719 511.699219 421.261719 511.699219 421.261719 C 506.261719 423.523438 506.261719 423.523438 504.8125 419.023438 C 503.367188 414.523438 501.917969 410.019531 502.222656 405.640625 C 502.34375 403.886719 501.589844 402.074219 500.773438 401.140625 C 499.144531 399.265625 498.449219 396.578125 498.632812 393.949219 C 498 390.382812 498.242188 386.878906 495.859375 383.195312 C 495.042969 382.257812 496.039062 380.566406 496.101562 379.691406 C 496.164062 378.8125 497.160156 377.121094 496.285156 377.0625 C 493.898438 373.375 495.019531 369.933594 495.261719 366.429688 C 496.867188 355.976562 493.972656 346.976562 493.824219 336.402344 C 493.132812 333.714844 494.25 330.269531 493.554688 327.582031 C 493.347656 317.886719 493.140625 308.191406 494.6875 298.613281 C 494.808594 296.863281 494.054688 295.050781 494.238281 292.421875 C 494.417969 289.792969 494.601562 287.167969 493.847656 285.355469 C 493.90625 284.476562 493.152344 282.664062 493.214844 281.789062 C 493.394531 279.160156 492.761719 275.597656 492.945312 272.96875 C 494.066406 269.527344 494.367188 265.144531 493.734375 261.582031 C 494.101562 256.324219 494.160156 255.449219 498.089844 249.5625 C 494.890625 244.9375 494.441406 238.746094 495.742188 232.675781 C 496.472656 222.164062 498.078125 211.710938 499.683594 201.261719 C 499.804688 199.507812 499.925781 197.757812 500.046875 196.003906 C 499.597656 189.8125 500.898438 183.742188 502.261719 176.792969 C 503.746094 168.097656 505.289062 158.519531 506.773438 149.824219 C 508.742188 134.117188 514.15625 119.527344 517.878906 103.941406 C 521.417969 90.984375 524.957031 78.027344 529.3125 66.007812 C 533.730469 53.113281 538.960938 41.152344 544.191406 29.191406 C 549.421875 17.234375 556.34375 6.273438 562.453125 -5.628906 C 565.503906 -11.578125 569.433594 -17.464844 572.488281 -23.414062 C 576.417969 -29.304688 579.46875 -35.253906 583.398438 -41.140625 C 585.335938 -43.648438 587.269531 -46.152344 589.203125 -48.660156 C 593.070312 -53.671875 596.878906 -57.808594 600.746094 -62.820312 C 603.679688 -67.019531 606.671875 -72.09375 610.480469 -76.230469 C 610.542969 -77.105469 611.417969 -77.042969 611.476562 -77.921875 C 616.222656 -82.871094 621.027344 -88.699219 625.773438 -93.652344 C 632.453125 -101.109375 639.070312 -107.691406 645.75 -115.148438 C 649.496094 -118.410156 653.242188 -121.671875 656.175781 -125.871094 C 657.109375 -126.683594 658.046875 -127.5 658.984375 -128.316406 C 669.410156 -139.035156 682.402344 -148.695312 694.460938 -157.539062 C 700.019531 -161.554688 705.640625 -166.445312 712.074219 -170.398438 C 713.011719 -171.214844 713.074219 -172.089844 713.074219 -172.089844 C 714.011719 -172.90625 714.070312 -173.78125 714.945312 -173.722656 C 722.078125 -174.988281 726.882812 -180.816406 733.257812 -183.894531 C 736.941406 -186.277344 740.628906 -188.664062 745.128906 -190.109375 C 750.570312 -192.375 756.066406 -195.511719 761.503906 -197.777344 C 769.695312 -201.609375 777.882812 -205.441406 786.070312 -209.273438 C 789.695312 -210.78125 794.136719 -211.355469 797.820312 -213.738281 C 798.757812 -214.554688 799.632812 -214.492188 800.511719 -214.433594 C 804.890625 -214.128906 808.515625 -215.636719 812.203125 -218.023438 C 814.015625 -218.777344 814.890625 -218.714844 816.640625 -218.59375 C 821.898438 -218.230469 826.339844 -218.800781 831.714844 -220.1875 C 832.652344 -221.003906 833.527344 -220.941406 835.28125 -220.820312 C 844.160156 -221.964844 853.917969 -223.050781 862.679688 -222.441406 C 874.066406 -221.652344 884.699219 -222.671875 895.964844 -220.128906 C 907.230469 -217.589844 919.433594 -215.863281 930.699219 -213.320312 C 931.574219 -213.257812 932.453125 -213.199219 933.265625 -212.261719 C 939.972656 -207.394531 948.609375 -205.035156 955.433594 -201.921875 C 962.257812 -198.804688 969.960938 -195.632812 975.789062 -190.824219 C 983.308594 -185.023438 991.703125 -179.160156 998.222656 -171.664062 C 1000.667969 -168.855469 1004.050781 -166.859375 1006.558594 -164.925781 C 1007.375 -163.988281 1009.0625 -162.992188 1009.878906 -162.054688 C 1017.15625 -152.746094 1026.304688 -145.070312 1034.457031 -135.703125 C 1040.976562 -128.210938 1046.5625 -119.898438 1052.148438 -111.589844 C 1056.101562 -105.15625 1060.992188 -99.535156 1064.945312 -93.097656 C 1068.085938 -87.601562 1071.226562 -82.101562 1074.363281 -76.601562 C 1075.933594 -73.851562 1078.316406 -70.167969 1079.886719 -67.417969 C 1081.519531 -65.542969 1083.085938 -62.792969 1083.84375 -60.980469 C 1085.984375 -53.792969 1090 -48.230469 1093.078125 -41.855469 C 1096.09375 -34.605469 1099.113281 -27.355469 1102.128906 -20.105469 C 1104.390625 -14.664062 1105.839844 -10.164062 1108.105469 -4.726562 C 1111.816406 5.214844 1116.402344 15.214844 1120.929688 26.089844 C 1123.191406 31.527344 1125.515625 36.089844 1127.777344 41.527344 C 1132.242188 53.28125 1137.585938 65.09375 1141.988281 77.722656 C 1143.5 81.347656 1144.070312 85.789062 1145.578125 89.414062 C 1147.78125 95.726562 1149.109375 101.980469 1150.433594 108.234375 C 1153.085938 120.742188 1158.429688 132.554688 1161.019531 145.9375 C 1163.796875 156.691406 1166.570312 167.445312 1169.34375 178.203125 C 1169.976562 181.765625 1170.671875 184.453125 1170.425781 187.957031 C 1170.9375 193.277344 1172.386719 197.777344 1174.710938 202.339844 C 1174.710938 202.339844 1174.648438 203.214844 1175.464844 204.152344 C 1176.609375 213.03125 1177.753906 221.914062 1178.019531 230.734375 C 1178.652344 234.300781 1179.347656 236.988281 1179.105469 240.492188 C 1180.492188 245.871094 1180.941406 252.0625 1182.328125 257.4375 C 1183.714844 262.816406 1184.226562 268.132812 1182.984375 273.328125 C 1182.804688 275.957031 1184.375 278.707031 1185.007812 282.269531 C 1185.515625 287.585938 1186.027344 292.902344 1186.539062 298.21875 C 1186.929688 305.289062 1188.132812 313.292969 1188.523438 320.363281 C 1188.914062 327.429688 1190.179688 334.558594 1190.570312 341.628906 C 1190.386719 344.257812 1190.144531 347.761719 1189.960938 350.386719 C 1189.65625 354.769531 1191.105469 359.269531 1189.925781 363.589844 C 1189.742188 366.214844 1191.25 369.84375 1191.070312 372.46875 C 1190.945312 374.222656 1190.765625 376.851562 1189.765625 378.539062 C 1189.644531 380.292969 1188.648438 381.984375 1189.464844 382.921875 C 1189.28125 385.546875 1188.976562 389.929688 1188.613281 395.183594 C 1188.246094 400.441406 1189.695312 404.941406 1189.332031 410.199219 C 1189.71875 417.265625 1189.292969 423.398438 1188.808594 430.40625 C 1188.199219 439.164062 1187.59375 447.925781 1186.984375 456.683594 C 1186.558594 462.816406 1187.007812 469.007812 1186.582031 475.140625 C 1185.914062 484.777344 1184.429688 493.476562 1182.886719 503.050781 C 1182.644531 506.554688 1183.214844 510.996094 1182.910156 515.375 C 1182.484375 521.507812 1181.183594 527.578125 1180.699219 534.585938 C 1179.152344 544.160156 1176.792969 552.796875 1175.25 562.371094 C 1174.007812 567.566406 1174.519531 572.882812 1173.277344 578.078125 C 1171.976562 584.148438 1170.675781 590.222656 1168.496094 596.230469 C 1166.199219 603.992188 1163.023438 611.695312 1162.476562 619.578125 C 1159.570312 636.101562 1151.527344 650.503906 1146.117188 665.09375 C 1144.933594 669.410156 1142.878906 673.667969 1141.699219 677.988281 C 1140.582031 681.433594 1138.523438 685.691406 1136.53125 689.074219 C 1134.472656 693.332031 1131.542969 697.527344 1129.484375 701.785156 C 1128.425781 704.351562 1127.308594 707.796875 1126.25 710.363281 C 1117.332031 724.707031 1107.539062 738.992188 1097.746094 753.273438 C 1089.011719 764.992188 1079.402344 776.648438 1069.035156 786.488281 C 1064.292969 791.441406 1060.421875 796.453125 1055.679688 801.40625 C 1052.808594 804.726562 1049.058594 807.988281 1045.3125 811.25 C 1036.882812 818.585938 1027.574219 825.859375 1019.203125 832.320312 C 1015.519531 834.707031 1011.832031 837.089844 1008.144531 839.476562 C 1002.527344 844.367188 997.027344 847.507812 990.652344 850.585938 C 989.714844 851.398438 987.902344 852.152344 986.964844 852.96875 C 986.027344 853.785156 985.09375 854.597656 983.28125 855.355469 C 972.34375 860.757812 961.40625 866.160156 950.46875 871.5625 C 944.09375 874.640625 937.839844 875.964844 931.464844 879.042969 C 916.902344 885.953125 900.890625 888.363281 884.757812 892.527344 C 876.691406 894.605469 867.8125 895.75 858.992188 896.019531 C 858.117188 895.957031 857.238281 895.898438 857.238281 895.898438 C 848.296875 897.917969 838.601562 898.125 829.78125 898.390625 C 819.269531 897.664062 809.632812 896.992188 799.9375 897.199219 C 799.9375 897.199219 799.0625 897.140625 799.0625 897.140625 C 786.738281 897.164062 774.65625 893.6875 763.269531 892.894531 C 758.886719 892.59375 754.691406 889.660156 750.371094 888.480469 C 743.484375 886.242188 736.601562 884.003906 730.648438 880.949219 C 721.320312 875.902344 711.171875 869.917969 700.902344 865.683594 C 690.695312 860.574219 682.363281 853.832031 673.152344 847.035156 C 666.449219 842.167969 660.742188 835.609375 654.972656 829.929688 C 653.34375 828.054688 651.652344 827.058594 650.023438 825.183594 C 650.082031 824.308594 648.332031 824.1875 648.390625 823.308594 C 645.253906 817.8125 639.363281 813.882812 634.414062 809.136719 C 629.398438 805.269531 626.261719 799.769531 622.183594 795.085938 C 618.109375 790.402344 614.96875 784.902344 610.894531 780.21875 C 607.695312 775.597656 603.558594 771.789062 600.359375 767.164062 C 598.726562 765.292969 597.15625 762.542969 595.527344 760.667969 C 594.710938 759.730469 593.957031 757.917969 593.144531 756.984375 C 589.941406 752.359375 586.742188 747.738281 583.542969 743.113281 C 583.605469 742.238281 582.726562 742.175781 582.789062 741.300781 C 579.710938 734.925781 575.695312 729.367188 572.617188 722.992188 C 568.722656 715.679688 563.894531 709.183594 560 701.871094 C 556.046875 695.4375 552.96875 689.0625 548.953125 683.5 C 548.953125 683.5 549.011719 682.625 548.136719 682.5625 C 541.738281 673.320312 538.148438 661.625 532.683594 651.566406 C 527.976562 643.316406 524.144531 635.128906 521.1875 627.003906 C 518.230469 618.875 513.460938 611.503906 510.441406 604.253906 C 505.164062 591.5625 499.882812 578.875 495.539062 565.371094 C 491.074219 553.617188 487.484375 541.925781 483.015625 530.175781 C 480.9375 522.109375 478.855469 514.042969 476.773438 505.976562 C 474 495.222656 471.289062 483.589844 468.511719 472.835938 C 466.554688 463.015625 463.71875 453.136719 461.757812 443.320312 C 460.433594 437.066406 460.859375 430.933594 460.40625 424.742188 C 459.898438 419.425781 459.445312 413.234375 458.933594 407.917969 C 459.058594 406.164062 458.300781 404.351562 458.425781 402.601562 C 457.523438 390.214844 457.4375 378.765625 457.414062 366.441406 C 457.023438 359.375 457.507812 352.367188 457.121094 345.296875 C 457.484375 340.042969 457.035156 333.851562 456.523438 328.53125 C 456.828125 324.152344 457.070312 320.648438 456.496094 316.207031 C 456.289062 306.511719 456.082031 296.816406 457.628906 287.242188 C 457.933594 282.859375 459.988281 278.601562 462.042969 274.34375 C 461.351562 271.65625 463.222656 270.027344 464.160156 269.210938 Z M 511.882812 418.632812 C 512.878906 416.941406 512.941406 416.066406 513.0625 414.3125 C 513.125 413.4375 512.308594 412.5 512.367188 411.625 C 511.492188 411.566406 509.742188 411.441406 508.867188 411.382812 C 506.929688 413.890625 507.625 416.578125 511.882812 418.632812 Z M 512.222656 401.054688 C 509.535156 401.746094 509.414062 403.5 511.917969 405.433594 C 512.101562 402.804688 512.160156 401.929688 512.222656 401.054688 Z M 512.222656 401.054688 " fill-opacity="1" fill-rule="nonzero"/></g></g></g><g clip-path="url(#5db4232d95)"><g clip-path="url(#d29e5b4435)"><g clip-path="url(#78c5aee7ec)"><path fill="#000000" d="M 511.882812 418.632812 C 507.683594 415.703125 506.929688 413.890625 508.804688 412.257812 C 509.742188 411.441406 510.617188 411.503906 512.308594 412.5 C 513.183594 412.5625 513.0625 414.3125 513 415.191406 C 513.816406 416.128906 512.878906 416.941406 511.882812 418.632812 Z M 511.882812 418.632812 " fill-opacity="1" fill-rule="nonzero"/></g></g></g><g clip-path="url(#d573cfa89e)"><g clip-path="url(#005570f6cb)"><g clip-path="url(#6933001a83)"><path fill="#000000" d="M 512.222656 401.054688 C 512.160156 401.929688 512.101562 402.804688 511.917969 405.433594 C 509.472656 402.621094 509.535156 401.746094 512.222656 401.054688 Z M 512.222656 401.054688 " fill-opacity="1" fill-rule="nonzero"/></g></g></g></svg>