<svg xmlns="http://www.w3.org/2000/svg" xmlns:xlink="http://www.w3.org/1999/xlink" width="1000" zoomAndPan="magnify" viewBox="0 0 750 112.499997" height="150" preserveAspectRatio="xMidYMid meet" version="1.0"><defs><clipPath id="fbcf3783fc"><path d="M 1.660156 11.199219 L 748.339844 11.199219 L 748.339844 112.003906 L 1.660156 112.003906 Z M 1.660156 11.199219 " clip-rule="nonzero"/></clipPath></defs><g clip-path="url(#fbcf3783fc)"><path fill="#000000" d="M 405.203125 15.847656 C 404.542969 15.183594 403.878906 14.519531 403.214844 14.519531 C 399.894531 13.855469 396.574219 12.527344 393.253906 11.863281 C 385.953125 11.199219 378.648438 11.863281 371.347656 12.527344 C 368.027344 13.191406 365.371094 13.191406 362.050781 13.191406 C 358.066406 13.855469 353.421875 13.855469 349.4375 14.519531 C 344.125 15.183594 338.8125 15.183594 333.503906 15.847656 C 324.207031 16.511719 315.578125 17.839844 306.28125 18.503906 C 304.953125 18.503906 303.628906 19.167969 302.300781 19.167969 C 298.316406 19.832031 293.667969 20.496094 289.683594 21.160156 C 285.039062 21.824219 280.390625 22.488281 275.742188 23.152344 C 268.441406 25.140625 261.136719 27.132812 253.835938 29.789062 C 245.203125 32.445312 237.238281 35.101562 229.269531 37.757812 C 223.292969 39.75 217.320312 41.738281 211.34375 43.730469 C 202.714844 47.050781 194.082031 51.035156 185.453125 55.019531 C 176.15625 59 166.199219 63.648438 156.902344 68.296875 C 150.929688 70.953125 145.617188 74.933594 140.304688 77.589844 C 133.667969 80.246094 127.691406 83.566406 122.378906 87.550781 C 115.078125 92.195312 106.445312 95.515625 99.808594 100.828125 C 99.808594 100.828125 99.144531 100.828125 99.144531 101.492188 C 94.496094 104.148438 89.847656 107.464844 85.867188 110.785156 C 80.554688 114.105469 75.90625 118.089844 70.597656 121.410156 C 65.949219 124.726562 61.964844 127.382812 57.316406 130.039062 C 56.652344 130.039062 56.652344 130.703125 55.988281 130.703125 C 52.671875 133.359375 49.351562 136.015625 46.03125 138.671875 C 45.367188 139.335938 44.039062 140 43.375 140.664062 C 42.046875 141.988281 40.054688 143.316406 38.726562 144.644531 C 35.410156 147.300781 32.089844 149.957031 29.433594 153.277344 C 26.113281 156.597656 22.128906 159.25 18.8125 162.570312 C 15.492188 165.890625 11.507812 169.210938 8.851562 172.53125 C 6.195312 176.511719 3.542969 180.496094 -1.105469 183.816406 C -3.761719 183.816406 -3.761719 185.144531 -4.425781 185.144531 C -5.089844 186.472656 -6.417969 187.800781 -7.746094 189.128906 C -11.066406 193.773438 -15.710938 198.421875 -19.03125 203.734375 C -23.679688 211.035156 -28.328125 217.675781 -31.644531 225.640625 C -34.964844 233.609375 -38.285156 240.910156 -41.605469 248.878906 C -43.597656 253.527344 -45.589844 258.835938 -46.25 264.148438 C -46.914062 267.46875 -48.90625 270.789062 -48.90625 274.109375 C -48.90625 283.402344 -51.5625 292.03125 -50.234375 301.328125 C -50.234375 301.328125 -50.234375 301.992188 -50.234375 301.992188 C -49.570312 309.292969 -49.570312 316.597656 -48.90625 323.902344 C -48.242188 331.203125 -47.578125 337.84375 -45.589844 344.480469 C -45.589844 345.144531 -45.589844 345.808594 -45.589844 345.808594 C -44.925781 352.449219 -43.597656 359.085938 -41.605469 365.0625 C -37.621094 376.347656 -34.964844 388.300781 -28.992188 399.585938 C -26.335938 404.234375 -25.007812 408.878906 -22.351562 413.527344 C -17.703125 421.496094 -13.054688 429.460938 -8.410156 437.429688 C -7.746094 438.09375 -7.082031 438.757812 -6.417969 440.085938 C -5.753906 440.75 -5.089844 442.074219 -4.425781 442.738281 C -1.769531 447.386719 0.886719 451.371094 4.867188 455.355469 C 7.523438 458.011719 8.851562 460.664062 10.84375 463.320312 C 16.820312 469.960938 22.128906 475.933594 28.105469 481.910156 C 30.761719 484.566406 33.417969 487.222656 36.074219 489.214844 C 40.054688 492.53125 44.039062 495.1875 48.023438 498.507812 C 55.988281 505.8125 65.285156 512.449219 74.578125 518.425781 C 85.867188 525.0625 97.152344 531.039062 108.4375 537.679688 C 110.429688 539.007812 113.085938 539.007812 115.078125 539.671875 C 118.398438 541 121.714844 542.988281 125.035156 544.316406 C 127.691406 545.644531 131.011719 546.972656 133.667969 547.636719 C 136.988281 548.964844 140.304688 549.628906 143.625 550.292969 C 155.574219 553.613281 166.863281 558.921875 178.8125 560.25 C 184.789062 560.914062 190.761719 562.90625 196.738281 563.570312 C 201.386719 564.234375 206.03125 565.5625 210.679688 566.226562 C 214.664062 566.890625 218.648438 566.890625 222.628906 566.890625 C 229.933594 567.554688 236.574219 568.882812 243.875 569.546875 C 248.523438 570.210938 253.171875 570.210938 258.480469 570.210938 C 261.800781 570.210938 264.457031 569.546875 267.777344 569.546875 C 275.078125 569.546875 281.71875 570.875 289.019531 570.875 C 293.667969 570.875 298.316406 570.210938 302.964844 570.210938 C 309.601562 570.210938 316.242188 570.210938 322.878906 570.210938 C 328.191406 570.210938 332.839844 569.546875 338.148438 569.546875 C 342.132812 568.882812 345.453125 568.21875 349.4375 568.21875 C 353.421875 568.21875 357.402344 568.21875 360.722656 566.226562 C 361.386719 565.5625 362.714844 566.226562 364.042969 566.226562 C 365.371094 566.226562 367.363281 566.226562 368.691406 566.890625 C 371.347656 567.554688 373.335938 565.5625 375.328125 565.5625 C 378.648438 566.226562 381.96875 564.898438 385.289062 564.898438 C 387.28125 564.898438 389.933594 565.5625 391.925781 564.898438 C 397.238281 564.234375 402.550781 563.570312 407.859375 562.242188 C 413.171875 561.578125 419.148438 560.25 424.457031 559.585938 C 428.441406 558.921875 432.425781 558.261719 436.410156 557.597656 C 438.402344 556.933594 441.054688 555.605469 443.046875 555.605469 C 447.03125 555.605469 451.015625 555.605469 455 554.277344 C 458.980469 552.949219 462.964844 552.285156 467.613281 550.957031 C 469.605469 550.292969 472.257812 549.628906 474.914062 549.628906 C 481.554688 548.300781 488.195312 546.972656 494.832031 546.308594 C 495.496094 546.308594 495.496094 546.308594 496.160156 545.644531 C 499.480469 543.652344 502.800781 542.324219 506.78125 541.664062 C 509.4375 541 511.429688 541 514.085938 540.335938 C 522.050781 537.679688 530.019531 535.023438 537.988281 532.367188 C 547.28125 529.710938 555.910156 525.066406 565.871094 522.410156 C 570.519531 521.082031 575.164062 519.753906 579.8125 517.761719 C 582.46875 516.433594 585.789062 515.769531 588.445312 514.441406 C 597.074219 510.457031 605.703125 506.476562 615 501.828125 C 618.984375 499.835938 622.300781 497.84375 626.285156 495.851562 C 633.589844 491.871094 640.890625 488.550781 648.859375 484.566406 C 652.84375 482.574219 656.160156 481.246094 660.144531 479.253906 C 665.457031 476.597656 670.769531 473.945312 676.078125 471.289062 C 680.726562 468.632812 684.710938 465.3125 690.019531 463.320312 C 692.011719 462.65625 693.339844 461.328125 694.667969 460 C 696.660156 458.675781 699.316406 456.683594 701.308594 455.355469 C 705.289062 452.699219 709.273438 450.042969 713.257812 447.386719 C 717.90625 444.066406 721.890625 440.085938 726.535156 436.765625 C 732.511719 432.117188 738.488281 427.46875 743.796875 422.160156 C 750.4375 415.519531 755.746094 408.21875 762.386719 402.242188 C 763.050781 401.578125 763.714844 400.914062 764.378906 399.585938 C 765.707031 397.59375 767.035156 394.9375 769.027344 392.945312 C 774.335938 387.636719 778.320312 380.996094 782.304688 375.023438 C 785.625 370.375 787.617188 364.398438 789.605469 359.085938 C 792.261719 353.113281 792.925781 347.136719 796.246094 341.828125 C 796.910156 341.164062 796.910156 340.5 796.910156 339.835938 C 798.238281 331.203125 798.902344 321.910156 800.230469 313.277344 C 801.558594 304.648438 800.230469 296.679688 800.230469 288.050781 C 800.230469 281.410156 798.238281 274.109375 797.574219 267.46875 C 797.574219 266.804688 796.910156 265.476562 796.910156 264.8125 C 794.917969 261.492188 794.917969 257.511719 794.917969 253.527344 C 794.917969 252.199219 794.253906 250.871094 794.253906 250.207031 C 792.925781 247.550781 790.933594 244.894531 790.933594 241.578125 C 790.933594 240.914062 790.933594 240.25 790.269531 239.585938 C 788.28125 236.929688 787.617188 234.273438 786.289062 230.953125 C 782.96875 224.980469 779.648438 219.003906 776.328125 213.027344 C 774.335938 209.042969 771.683594 205.726562 769.691406 201.078125 C 768.363281 197.757812 766.371094 195.101562 764.378906 192.445312 C 761.722656 188.464844 757.074219 184.480469 755.746094 179.167969 C 755.746094 178.503906 754.421875 177.839844 754.421875 177.839844 C 753.757812 177.175781 753.09375 177.175781 753.09375 177.175781 C 749.773438 173.195312 746.453125 169.210938 742.46875 164.5625 C 734.503906 155.933594 727.199219 147.300781 718.570312 139.335938 C 717.90625 138.671875 717.242188 138.007812 716.578125 137.34375 C 713.921875 134.6875 711.265625 132.03125 707.945312 130.039062 C 702.636719 125.390625 696.660156 120.746094 690.683594 116.097656 C 686.703125 112.777344 682.054688 109.457031 678.070312 106.140625 C 677.40625 106.140625 677.40625 105.476562 676.742188 105.476562 C 673.421875 103.484375 669.441406 101.492188 666.121094 98.835938 C 662.136719 96.179688 658.816406 93.523438 654.835938 90.871094 C 652.84375 89.542969 650.851562 88.214844 648.859375 86.886719 C 644.210938 84.230469 639.5625 82.238281 634.917969 79.582031 C 630.269531 76.925781 625.621094 74.933594 620.976562 72.945312 C 608.359375 70.953125 599.730469 66.304688 590.433594 62.984375 C 581.140625 59.664062 571.183594 56.347656 561.886719 53.691406 C 551.929688 51.035156 542.632812 48.378906 532.675781 47.050781 C 520.726562 45.058594 509.4375 42.402344 497.488281 41.074219 C 490.847656 40.414062 483.546875 39.75 476.90625 39.085938 C 471.597656 38.421875 466.949219 37.757812 462.300781 38.421875 C 460.972656 38.421875 459.644531 38.421875 458.316406 38.421875 C 450.351562 38.421875 442.382812 37.757812 434.417969 37.757812 C 429.769531 37.757812 425.785156 37.757812 421.800781 40.414062 C 417.15625 37.757812 416.492188 37.757812 412.507812 38.421875 C 409.851562 39.085938 406.53125 39.085938 403.878906 38.421875 C 401.886719 37.757812 399.230469 38.421875 397.238281 39.085938 C 396.574219 39.085938 395.246094 39.75 394.582031 39.75 C 392.589844 39.75 390.597656 39.75 389.269531 40.414062 C 387.945312 40.414062 385.953125 41.074219 384.625 41.074219 C 377.320312 40.414062 370.019531 41.074219 362.714844 41.738281 C 360.722656 41.738281 358.066406 41.738281 356.074219 42.402344 C 348.773438 43.730469 341.46875 45.722656 333.503906 45.058594 C 330.847656 45.058594 328.191406 44.394531 325.535156 45.722656 C 324.871094 45.722656 324.207031 45.722656 323.542969 45.722656 C 322.878906 45.722656 321.550781 45.722656 320.890625 45.722656 C 318.898438 47.714844 315.578125 47.714844 312.921875 48.378906 C 310.929688 49.042969 309.601562 49.042969 307.609375 50.371094 C 307.609375 51.035156 305.617188 51.699219 304.953125 51.699219 C 300.972656 51.035156 298.316406 53.027344 294.996094 54.355469 C 291.011719 55.683594 291.011719 56.347656 293.667969 59.664062 C 293.667969 59.664062 293.667969 60.328125 293.667969 60.328125 C 291.675781 60.992188 290.347656 62.320312 288.355469 62.984375 C 289.019531 63.648438 289.683594 64.3125 290.347656 64.3125 C 293.667969 63.648438 296.324219 62.984375 299.644531 62.320312 C 300.308594 62.320312 300.972656 61.65625 301.636719 61.65625 C 305.617188 61.65625 309.601562 60.992188 312.921875 60.992188 C 314.914062 60.992188 316.242188 60.328125 316.242188 58.335938 C 316.242188 56.347656 317.570312 56.347656 318.898438 56.347656 C 320.226562 56.347656 321.550781 56.347656 322.878906 56.347656 C 322.878906 57.671875 322.214844 58.335938 322.214844 59.664062 C 326.199219 60.328125 329.519531 60.992188 332.839844 58.335938 C 332.175781 57.671875 331.511719 56.347656 330.847656 55.683594 C 333.503906 55.019531 335.496094 54.355469 336.824219 57.011719 C 338.152344 59 340.140625 59.664062 342.132812 59.664062 C 347.445312 58.335938 352.09375 57.671875 357.402344 57.671875 C 366.035156 57.011719 374 56.347656 382.632812 55.683594 C 390.597656 55.019531 398.566406 55.019531 406.53125 55.019531 C 419.8125 54.355469 433.753906 54.355469 447.03125 55.683594 C 453.007812 56.347656 459.644531 56.347656 465.621094 57.011719 C 466.949219 57.011719 468.941406 57.011719 470.269531 57.011719 C 471.597656 57.011719 472.921875 57.011719 474.25 57.011719 C 476.90625 57.011719 479.5625 57.671875 482.21875 57.671875 C 484.210938 57.671875 486.203125 57.671875 488.195312 58.335938 C 493.503906 57.671875 498.152344 58.335938 503.464844 59 C 506.117188 59 508.773438 59.664062 510.765625 59.664062 C 517.40625 60.992188 523.378906 62.984375 530.019531 64.3125 C 535.996094 65.640625 542.632812 66.304688 548.609375 68.296875 C 553.921875 70.289062 559.894531 70.953125 565.871094 72.945312 C 573.835938 75.597656 581.804688 78.253906 589.769531 80.910156 C 594.417969 82.238281 598.402344 84.230469 603.050781 85.558594 C 606.367188 86.886719 609.6875 88.878906 613.671875 90.867188 C 618.984375 92.859375 624.292969 95.515625 628.941406 98.171875 C 631.597656 100.164062 634.917969 101.492188 638.238281 102.820312 C 642.21875 104.8125 646.203125 106.140625 650.1875 109.457031 C 652.179688 111.449219 654.835938 112.777344 656.824219 114.105469 C 660.144531 116.097656 664.128906 118.089844 667.449219 120.746094 C 673.421875 125.390625 680.726562 128.710938 685.375 134.6875 C 691.347656 139.335938 697.324219 142.652344 701.972656 147.964844 C 706.617188 153.277344 712.59375 157.921875 717.242188 162.570312 C 719.898438 165.226562 721.890625 167.882812 724.542969 170.539062 C 729.191406 174.519531 733.175781 179.167969 736.496094 184.480469 C 740.476562 189.128906 745.125 193.773438 747.117188 199.75 C 751.765625 203.734375 752.429688 209.707031 757.074219 213.691406 C 761.058594 220.996094 765.042969 227.632812 768.363281 234.9375 C 770.355469 239.585938 772.34375 244.230469 773.671875 248.878906 C 774.335938 250.871094 775 252.863281 775.664062 255.519531 C 776.992188 259.5 778.320312 262.820312 778.984375 266.804688 C 779.648438 269.460938 779.648438 272.117188 780.3125 274.769531 C 780.976562 280.082031 782.304688 285.394531 781.640625 290.707031 C 781.640625 294.023438 780.976562 298.007812 780.976562 301.328125 C 781.640625 307.964844 779.648438 314.605469 778.984375 321.246094 C 777.65625 329.875 775 337.84375 771.683594 345.808594 C 767.035156 357.097656 761.722656 367.054688 754.421875 376.347656 C 753.09375 378.339844 751.101562 379.667969 749.773438 382.324219 C 747.117188 386.972656 743.132812 391.617188 739.148438 395.601562 C 735.832031 399.585938 731.847656 402.90625 727.863281 406.890625 C 727.199219 407.554688 726.535156 408.214844 726.535156 408.878906 C 725.871094 410.871094 723.878906 412.863281 721.890625 413.527344 C 718.570312 414.855469 716.578125 416.847656 714.585938 418.839844 C 713.257812 419.503906 712.59375 420.832031 711.265625 421.496094 C 708.609375 423.488281 705.953125 425.476562 703.300781 427.46875 C 700.644531 429.460938 697.988281 432.117188 695.332031 434.109375 C 690.019531 437.429688 684.710938 440.085938 680.0625 444.730469 C 678.734375 446.058594 677.40625 447.386719 676.078125 448.050781 C 670.769531 449.378906 666.785156 453.363281 662.136719 456.019531 C 660.808594 456.683594 659.480469 456.683594 658.816406 457.347656 C 655.5 461.328125 649.523438 461.992188 645.539062 465.3125 C 640.890625 468.632812 634.253906 469.296875 629.605469 473.945312 C 629.605469 473.945312 628.941406 473.945312 628.941406 474.605469 C 626.285156 475.933594 623.628906 476.597656 621.640625 477.925781 C 619.648438 479.253906 617.65625 480.582031 615.664062 481.246094 C 611.679688 483.238281 607.695312 484.566406 603.050781 486.558594 C 599.066406 488.550781 595.082031 489.878906 591.097656 491.207031 C 589.105469 491.867188 587.78125 493.195312 586.453125 493.859375 C 579.148438 496.515625 573.171875 500.5 565.871094 502.492188 C 560.558594 503.820312 555.25 507.140625 549.273438 507.804688 C 548.609375 507.804688 548.609375 507.804688 547.945312 508.464844 C 543.960938 509.792969 540.640625 511.785156 536.660156 513.113281 C 535.332031 513.777344 533.339844 514.441406 531.347656 514.441406 C 527.363281 515.769531 523.378906 516.433594 520.0625 517.761719 C 516.078125 519.089844 511.429688 520.417969 507.445312 522.410156 C 504.128906 523.738281 500.144531 524.402344 496.824219 525.726562 C 492.839844 527.054688 488.859375 528.382812 484.875 529.710938 C 476.90625 531.703125 469.605469 533.03125 461.636719 535.023438 C 456.988281 536.351562 451.679688 537.015625 447.03125 538.34375 C 443.046875 539.007812 439.726562 539.007812 435.746094 540.335938 C 431.761719 541.660156 427.777344 542.324219 423.792969 542.324219 C 419.8125 542.988281 416.492188 542.988281 413.171875 544.980469 C 412.507812 544.980469 411.84375 545.644531 411.179688 545.644531 C 403.878906 545.644531 396.574219 547.636719 389.933594 548.300781 C 385.289062 548.964844 381.304688 549.628906 376.65625 549.628906 C 374 549.628906 370.683594 549.628906 368.027344 549.628906 C 360.722656 550.292969 353.421875 550.957031 346.117188 551.621094 C 340.804688 552.285156 334.832031 552.285156 329.519531 552.949219 C 321.554688 553.613281 312.921875 554.277344 304.957031 554.277344 C 298.980469 554.277344 292.339844 554.277344 286.367188 554.277344 C 279.0625 554.277344 272.421875 554.277344 265.121094 554.277344 C 259.144531 554.277344 253.835938 553.613281 247.859375 553.613281 C 241.882812 552.949219 235.910156 552.949219 229.933594 552.285156 C 225.285156 551.621094 219.976562 550.957031 215.328125 550.292969 C 212.007812 549.628906 209.351562 549.628906 206.03125 548.964844 C 197.402344 547.636719 188.109375 545.644531 179.476562 544.316406 C 177.484375 543.652344 175.492188 543.652344 174.164062 542.988281 C 168.855469 541.664062 163.542969 540.335938 158.230469 539.007812 C 149.601562 536.351562 140.96875 533.695312 131.675781 531.039062 C 130.347656 530.375 128.355469 529.710938 127.027344 529.046875 C 121.71875 527.054688 117.070312 525.066406 111.757812 523.074219 C 108.4375 521.746094 105.121094 519.753906 101.800781 517.761719 C 97.152344 515.105469 93.167969 511.785156 87.859375 509.792969 C 81.882812 507.804688 77.898438 501.828125 71.261719 500.5 C 71.261719 500.5 70.597656 500.5 70.597656 499.835938 C 67.941406 497.84375 65.285156 495.851562 61.964844 493.195312 C 55.988281 487.886719 50.015625 483.238281 43.375 477.925781 C 40.71875 475.933594 38.726562 473.28125 36.074219 471.289062 C 34.082031 469.296875 32.089844 467.304688 30.097656 465.3125 C 28.105469 462.65625 25.449219 460.664062 23.457031 458.011719 C 22.128906 456.683594 20.804688 456.019531 20.140625 454.691406 C 14.828125 448.050781 10.179688 442.074219 4.871094 435.4375 C 1.550781 431.453125 -1.105469 426.804688 -3.761719 422.160156 C -7.746094 415.519531 -11.066406 408.214844 -14.382812 400.914062 C -14.382812 400.25 -15.046875 399.585938 -15.046875 398.921875 C -15.710938 394.273438 -18.367188 390.292969 -19.695312 385.644531 C -21.023438 380.332031 -23.015625 375.683594 -25.007812 370.375 C -26.335938 365.0625 -28.328125 359.75 -28.988281 353.777344 C -29.652344 349.128906 -30.980469 344.480469 -30.980469 339.835938 C -31.644531 331.203125 -32.308594 323.238281 -32.308594 314.605469 C -32.308594 307.304688 -32.308594 300.664062 -31.644531 293.359375 C -30.980469 282.738281 -27.664062 272.117188 -24.34375 261.492188 C -22.351562 255.519531 -19.695312 250.207031 -17.039062 244.230469 C -15.710938 240.914062 -13.71875 237.59375 -11.726562 234.273438 C -9.074219 230.289062 -7.082031 225.640625 -4.425781 221.660156 C -2.433594 218.339844 0.222656 215.019531 2.878906 211.699219 C 4.871094 209.707031 6.195312 206.390625 8.1875 205.0625 C 12.171875 202.40625 14.164062 198.421875 17.484375 195.101562 C 20.804688 191.78125 23.457031 187.800781 26.777344 183.816406 C 30.761719 179.167969 36.074219 175.183594 40.054688 171.203125 C 43.375 167.882812 46.695312 165.226562 50.015625 162.570312 C 52.671875 159.914062 55.324219 157.261719 58.644531 155.269531 C 59.972656 154.605469 60.636719 153.277344 61.964844 152.613281 C 63.292969 151.285156 64.621094 150.621094 65.949219 149.292969 C 67.277344 148.628906 68.605469 147.300781 69.933594 146.636719 C 71.261719 145.308594 72.585938 143.980469 73.914062 142.652344 C 81.882812 137.34375 88.519531 131.367188 96.488281 127.382812 C 97.816406 126.71875 99.144531 125.390625 100.472656 124.066406 C 101.800781 123.402344 103.128906 122.074219 104.457031 121.410156 C 111.09375 117.425781 117.734375 114.105469 123.707031 109.457031 C 127.691406 106.804688 131.675781 102.820312 136.988281 101.492188 C 137.652344 101.492188 137.652344 100.828125 137.652344 100.828125 C 142.960938 97.507812 148.9375 94.851562 154.25 91.53125 C 156.902344 90.207031 160.222656 88.214844 162.878906 86.886719 C 166.199219 85.558594 168.855469 84.230469 172.171875 82.902344 C 179.476562 79.582031 186.117188 76.261719 193.417969 72.945312 C 201.386719 68.960938 206.695312 66.304688 212.671875 64.3125 C 217.984375 62.320312 223.957031 60.328125 229.269531 58.335938 C 232.589844 57.011719 236.574219 55.683594 239.890625 54.355469 C 247.195312 51.699219 254.5 49.042969 262.464844 47.050781 C 271.097656 44.394531 279.726562 43.066406 288.355469 41.074219 C 291.675781 40.414062 294.996094 39.75 298.980469 39.085938 C 300.972656 38.421875 303.628906 37.757812 305.617188 37.757812 C 307.609375 37.757812 308.9375 37.09375 310.929688 36.429688 C 316.90625 35.765625 322.214844 34.4375 328.191406 33.773438 C 330.847656 33.773438 332.839844 33.109375 335.496094 33.109375 C 338.148438 33.109375 340.804688 32.445312 343.460938 32.445312 C 346.117188 31.78125 349.4375 31.117188 352.09375 30.453125 C 361.386719 29.125 371.347656 28.460938 380.640625 27.132812 C 383.296875 27.132812 385.953125 26.46875 388.605469 26.46875 C 388.605469 23.152344 388.605469 23.152344 391.261719 22.488281 C 393.253906 22.488281 394.582031 22.488281 396.574219 21.824219 C 397.902344 21.160156 399.230469 20.496094 400.558594 19.832031 C 401.886719 18.503906 403.214844 17.175781 405.203125 15.847656 Z M 405.203125 15.847656 " fill-opacity="1" fill-rule="nonzero"/><path fill="#000000" d="M 405.203125 15.847656 C 403.214844 17.839844 402.550781 19.167969 401.222656 20.496094 C 399.894531 21.160156 398.566406 21.824219 397.238281 22.488281 C 395.246094 23.152344 393.917969 23.152344 391.925781 23.152344 C 389.269531 23.816406 389.269531 23.816406 389.269531 27.132812 C 386.617188 27.132812 383.960938 27.796875 381.304688 27.796875 C 372.007812 29.125 362.050781 29.789062 352.757812 31.117188 C 349.4375 31.78125 346.78125 32.445312 344.125 33.109375 C 341.46875 33.773438 338.8125 33.773438 336.160156 33.773438 C 333.503906 33.773438 331.511719 34.4375 328.855469 34.4375 C 322.878906 35.101562 317.570312 35.765625 311.59375 37.09375 C 309.601562 37.09375 308.273438 37.757812 306.28125 38.421875 C 303.628906 37.757812 300.972656 38.421875 298.980469 38.421875 C 295.660156 39.085938 292.339844 39.75 288.355469 40.414062 C 279.726562 42.402344 271.097656 44.394531 262.464844 46.386719 C 255.160156 48.378906 247.195312 51.035156 239.890625 53.691406 C 236.574219 55.019531 232.589844 56.347656 229.269531 57.671875 C 223.957031 59.664062 217.984375 61.65625 212.671875 63.648438 C 206.695312 66.304688 200.722656 68.296875 194.746094 70.953125 C 187.445312 74.269531 180.804688 77.589844 173.5 80.910156 C 170.183594 82.238281 167.527344 83.566406 164.207031 84.894531 C 160.886719 86.222656 158.230469 88.214844 155.574219 89.542969 C 150.265625 92.859375 144.289062 95.515625 138.976562 98.835938 C 138.976562 98.835938 138.3125 99.5 138.3125 99.5 C 133.003906 100.828125 129.683594 104.8125 125.035156 107.464844 C 119.0625 111.449219 112.421875 115.433594 105.78125 119.417969 C 104.453125 120.082031 103.128906 121.410156 101.800781 122.074219 C 100.472656 123.402344 99.144531 124.0625 97.816406 125.390625 C 89.847656 129.375 82.546875 136.015625 75.242188 140.664062 C 73.914062 141.988281 72.585938 143.316406 71.257812 144.644531 C 69.933594 145.972656 68.605469 146.636719 67.277344 147.300781 C 65.949219 148.628906 64.621094 149.292969 63.292969 150.621094 C 61.964844 151.285156 61.300781 152.613281 59.972656 153.277344 C 56.652344 155.269531 54 157.921875 51.34375 160.578125 C 48.023438 163.234375 44.703125 166.554688 41.382812 169.210938 C 36.738281 173.195312 32.089844 177.175781 28.105469 181.824219 C 24.785156 185.144531 22.128906 189.792969 18.8125 193.109375 C 14.828125 197.09375 12.171875 201.078125 8.851562 203.734375 C 6.859375 205.726562 5.53125 208.378906 3.542969 210.371094 C 0.886719 213.691406 -1.769531 217.011719 -3.761719 220.332031 C -6.417969 224.3125 -9.074219 228.960938 -11.066406 232.945312 C -13.054688 236.265625 -15.046875 239.585938 -16.375 242.902344 C -19.03125 248.878906 -21.6875 254.191406 -23.679688 260.164062 C -27 270.789062 -29.652344 281.410156 -30.980469 292.03125 C -31.644531 299.335938 -31.644531 305.976562 -31.644531 313.277344 C -31.644531 321.910156 -30.980469 329.875 -30.316406 338.507812 C -29.652344 343.152344 -28.328125 347.800781 -28.328125 352.449219 C -27.664062 357.757812 -25.671875 363.734375 -24.34375 369.046875 C -23.015625 374.359375 -21.023438 379.003906 -19.03125 384.316406 C -17.703125 388.964844 -14.382812 392.945312 -14.382812 397.59375 C -14.382812 398.257812 -13.71875 398.921875 -13.71875 399.585938 C -10.402344 406.890625 -6.417969 413.527344 -3.097656 420.832031 C -0.441406 425.476562 2.214844 430.125 5.53125 434.109375 C 10.179688 440.75 15.492188 447.386719 20.804688 453.363281 C 22.128906 454.691406 22.792969 456.019531 24.121094 456.683594 C 26.113281 459.335938 28.769531 461.328125 30.761719 463.984375 C 32.753906 465.976562 34.746094 467.96875 36.738281 469.960938 C 39.390625 471.953125 41.382812 474.605469 44.039062 476.597656 C 50.015625 481.910156 55.988281 486.558594 62.628906 491.867188 C 65.285156 493.859375 67.941406 496.515625 71.257812 498.507812 C 71.257812 498.507812 71.921875 499.171875 71.921875 499.171875 C 77.898438 501.164062 82.546875 506.476562 88.519531 508.464844 C 93.167969 510.457031 97.816406 513.777344 102.464844 516.433594 C 105.78125 518.425781 109.101562 520.417969 112.421875 521.746094 C 117.070312 523.738281 122.378906 525.726562 127.691406 527.71875 C 129.019531 528.382812 131.011719 529.710938 132.339844 529.710938 C 140.96875 532.367188 149.601562 535.023438 158.894531 537.679688 C 164.207031 539.007812 169.519531 540.335938 174.828125 541.660156 C 176.820312 542.324219 178.8125 542.324219 180.140625 542.988281 C 188.769531 544.980469 198.066406 546.308594 206.695312 547.636719 C 209.351562 548.300781 212.671875 548.300781 215.992188 548.964844 C 220.640625 549.628906 225.949219 550.292969 230.597656 550.957031 C 236.574219 551.621094 242.546875 552.285156 248.523438 552.285156 C 254.5 552.949219 259.808594 552.949219 265.785156 552.949219 C 273.085938 552.949219 279.726562 552.949219 287.03125 552.949219 C 293.003906 552.949219 299.644531 552.949219 305.617188 552.949219 C 313.585938 552.949219 322.214844 552.285156 330.183594 551.621094 C 335.496094 550.957031 341.46875 550.957031 346.78125 550.292969 C 354.085938 549.628906 361.386719 548.964844 368.691406 548.300781 C 371.347656 548.300781 374.664062 548.300781 377.320312 548.300781 C 381.96875 547.636719 385.953125 547.636719 390.597656 546.972656 C 397.902344 546.308594 404.542969 544.316406 411.84375 544.316406 C 412.507812 544.316406 413.171875 544.316406 413.835938 543.652344 C 417.15625 542.324219 420.476562 541.660156 424.457031 541 C 428.441406 540.335938 432.425781 540.335938 436.410156 539.007812 C 439.726562 537.679688 443.710938 537.679688 447.695312 537.015625 C 452.34375 536.351562 457.652344 535.023438 462.300781 533.695312 C 470.269531 531.703125 477.570312 530.375 485.539062 528.382812 C 489.519531 527.054688 493.503906 525.726562 497.488281 524.402344 C 500.808594 523.074219 504.792969 522.410156 508.109375 521.082031 C 512.09375 519.753906 516.742188 518.425781 520.726562 516.433594 C 524.707031 515.105469 528.027344 513.777344 532.011719 513.113281 C 534.003906 512.449219 535.332031 512.449219 537.324219 511.785156 C 541.304688 510.457031 544.625 508.464844 548.609375 507.140625 C 549.273438 507.140625 549.273438 506.476562 549.9375 506.476562 C 555.910156 505.8125 560.558594 502.492188 566.535156 501.164062 C 573.835938 499.171875 580.476562 495.1875 587.117188 492.53125 C 589.105469 491.867188 590.433594 490.542969 591.761719 489.878906 C 595.746094 487.886719 599.730469 486.558594 603.714844 485.230469 C 607.695312 483.238281 612.34375 481.910156 616.328125 479.917969 C 618.320312 479.253906 620.3125 477.925781 622.300781 476.597656 C 624.957031 475.269531 627.613281 474.605469 629.605469 473.28125 C 629.605469 473.28125 630.269531 473.28125 630.269531 472.617188 C 634.253906 467.96875 640.890625 467.304688 646.203125 463.984375 C 650.1875 461.328125 655.496094 460 659.480469 456.019531 C 660.144531 455.355469 661.472656 455.355469 662.800781 454.691406 C 667.449219 452.699219 671.433594 448.714844 676.742188 446.722656 C 678.070312 446.058594 679.398438 444.730469 680.726562 443.402344 C 685.375 439.421875 690.683594 436.765625 695.996094 432.78125 C 698.652344 430.789062 701.308594 428.132812 703.964844 426.140625 C 706.617188 424.152344 709.273438 422.160156 711.929688 420.167969 C 713.257812 419.503906 713.921875 418.175781 715.25 417.511719 C 717.90625 415.519531 719.898438 412.863281 722.550781 412.199219 C 724.542969 411.535156 726.535156 410.207031 727.199219 407.554688 C 727.199219 406.890625 727.863281 406.226562 728.527344 405.5625 C 732.511719 401.578125 735.832031 398.257812 739.8125 394.273438 C 743.796875 390.292969 747.117188 386.308594 750.4375 380.996094 C 751.765625 379.003906 753.757812 377.011719 755.082031 375.019531 C 762.386719 365.726562 768.363281 355.769531 772.34375 344.480469 C 775.664062 336.515625 778.320312 328.546875 779.648438 319.917969 C 780.976562 313.277344 782.304688 306.640625 781.640625 300 C 781.640625 296.679688 781.640625 293.359375 782.304688 289.378906 C 782.96875 284.066406 781.640625 278.753906 780.976562 273.445312 C 780.3125 270.789062 780.3125 268.132812 779.648438 265.476562 C 778.984375 261.492188 776.992188 258.171875 776.328125 254.191406 C 775.664062 252.199219 775 249.542969 774.335938 247.550781 C 772.34375 242.902344 771.019531 238.257812 769.027344 233.609375 C 765.707031 226.304688 761.058594 219.667969 757.738281 212.363281 C 753.757812 208.378906 752.429688 202.40625 747.78125 198.421875 C 745.789062 192.445312 741.140625 187.800781 737.160156 183.152344 C 733.175781 178.503906 729.855469 173.195312 725.207031 169.210938 C 722.550781 167.21875 720.5625 163.898438 717.90625 161.242188 C 712.59375 156.597656 707.28125 151.949219 702.636719 146.636719 C 697.324219 141.324219 691.347656 137.34375 686.039062 133.359375 C 680.726562 127.382812 674.085938 124.0625 668.113281 119.417969 C 664.792969 116.761719 660.808594 114.769531 657.488281 112.777344 C 655.496094 111.449219 652.84375 110.121094 650.851562 108.128906 C 647.53125 104.8125 643.546875 103.484375 638.898438 101.492188 C 635.582031 100.164062 632.925781 98.835938 629.605469 96.84375 C 624.957031 93.523438 619.648438 91.53125 614.335938 89.542969 C 611.015625 88.214844 607.695312 86.222656 603.714844 84.230469 C 599.730469 82.238281 595.082031 80.910156 590.433594 79.582031 C 582.46875 76.925781 574.5 74.269531 566.535156 71.617188 C 559.894531 70.953125 553.921875 70.289062 547.945312 68.296875 C 541.96875 66.304688 535.996094 65.640625 529.355469 64.3125 C 522.714844 62.984375 516.742188 60.992188 510.101562 59.664062 C 507.445312 59 504.789062 59 502.800781 59 C 498.152344 58.335938 493.503906 57.671875 488.855469 57.671875 C 486.867188 57.671875 484.875 57.671875 482.882812 57.011719 C 480.226562 57.011719 477.570312 56.347656 474.914062 56.347656 C 473.585938 56.347656 472.257812 56.347656 470.933594 56.347656 C 469.605469 56.347656 467.613281 56.347656 466.285156 56.347656 C 460.308594 55.683594 453.671875 55.683594 447.695312 55.019531 C 434.417969 54.355469 420.476562 54.355469 407.195312 54.355469 C 399.230469 54.355469 391.261719 54.355469 383.296875 55.019531 C 374 55.683594 366.035156 56.347656 357.402344 57.671875 C 352.09375 57.671875 347.445312 58.335938 342.132812 58.335938 C 340.140625 58.335938 337.488281 57.671875 336.824219 55.683594 C 335.496094 53.027344 333.503906 54.355469 330.847656 54.355469 C 331.511719 55.683594 332.175781 56.347656 332.839844 57.011719 C 329.519531 59.664062 326.199219 59.664062 322.214844 58.335938 C 322.214844 57.011719 322.878906 56.347656 322.878906 55.019531 C 321.550781 55.019531 320.226562 55.019531 318.898438 55.019531 C 317.570312 55.019531 316.242188 55.683594 316.242188 57.011719 C 316.242188 59 314.914062 59.664062 312.921875 59.664062 C 308.9375 59.664062 304.953125 60.328125 301.636719 60.328125 C 300.972656 60.328125 300.308594 60.992188 299.644531 60.992188 C 295.660156 62.984375 293.003906 64.3125 289.683594 64.3125 C 289.019531 64.3125 288.355469 63.648438 287.695312 62.984375 C 289.683594 61.65625 291.675781 60.992188 293.003906 60.328125 C 293.003906 59.664062 293.003906 59.664062 293.003906 59.664062 C 291.011719 55.683594 291.011719 55.683594 294.332031 54.355469 C 297.652344 53.027344 300.972656 51.699219 304.292969 51.699219 C 305.617188 51.699219 306.945312 51.035156 307.609375 50.371094 C 308.9375 49.042969 310.929688 48.378906 312.921875 48.378906 C 315.578125 47.714844 318.234375 47.714844 320.890625 45.722656 C 321.550781 45.058594 322.878906 45.722656 323.542969 45.722656 C 324.207031 45.722656 325.535156 46.386719 325.535156 45.722656 C 328.191406 43.730469 330.847656 44.394531 333.503906 44.394531 C 341.46875 45.058594 348.109375 42.402344 356.074219 41.738281 C 358.066406 41.074219 360.722656 41.738281 362.714844 41.074219 C 370.019531 40.414062 377.320312 39.75 384.625 40.414062 C 385.953125 40.414062 387.28125 39.75 389.269531 39.75 C 391.261719 39.75 393.253906 39.75 394.582031 39.085938 C 395.246094 39.085938 396.574219 38.421875 397.238281 38.421875 C 399.230469 38.421875 401.886719 37.757812 403.878906 37.757812 C 406.53125 38.421875 409.851562 38.421875 412.507812 37.757812 C 416.492188 37.757812 417.15625 37.757812 421.800781 40.414062 C 425.121094 37.757812 429.769531 37.09375 434.417969 37.757812 C 442.382812 37.757812 450.351562 38.421875 458.316406 39.085938 C 459.644531 39.085938 460.972656 39.085938 462.300781 39.085938 C 466.949219 38.421875 471.597656 39.085938 476.90625 39.75 C 483.546875 40.414062 490.847656 41.074219 497.488281 41.738281 C 509.4375 42.402344 520.726562 45.722656 532.675781 47.714844 C 542.632812 49.707031 552.59375 51.699219 561.886719 54.355469 C 571.84375 57.011719 581.140625 60.328125 590.433594 63.648438 C 599.730469 66.96875 608.359375 71.617188 617.65625 75.597656 C 622.300781 77.589844 626.949219 80.246094 631.597656 82.238281 C 636.246094 84.894531 640.890625 86.886719 645.539062 89.542969 C 647.53125 90.867188 649.523438 92.195312 651.515625 93.523438 C 655.496094 96.179688 658.816406 98.835938 662.800781 101.492188 C 666.121094 103.484375 670.105469 105.476562 673.421875 108.128906 C 674.085938 108.128906 674.085938 108.792969 674.75 108.792969 C 678.734375 112.113281 683.382812 115.433594 687.367188 118.753906 C 693.339844 123.402344 698.652344 128.046875 704.628906 132.695312 C 707.28125 135.351562 709.9375 138.007812 713.257812 140 C 713.921875 140.664062 714.585938 141.324219 715.25 141.988281 C 723.878906 149.292969 731.847656 158.585938 739.148438 167.21875 C 742.46875 171.203125 746.453125 175.183594 749.773438 179.832031 C 750.4375 180.496094 751.101562 180.496094 751.101562 180.496094 C 751.765625 181.160156 752.429688 181.160156 752.429688 181.824219 C 753.757812 187.136719 758.402344 190.457031 761.058594 195.101562 C 763.050781 197.757812 765.042969 200.414062 766.371094 203.734375 C 768.363281 207.714844 771.019531 211.699219 773.007812 215.683594 C 776.328125 221.660156 779.648438 227.632812 782.96875 233.609375 C 784.296875 236.265625 784.960938 239.585938 786.953125 242.238281 C 787.617188 242.902344 787.617188 243.566406 787.617188 244.230469 C 787.617188 247.550781 788.941406 250.207031 790.933594 252.863281 C 791.597656 254.191406 791.597656 254.855469 791.597656 256.183594 C 791.597656 260.164062 792.261719 263.484375 793.589844 267.46875 C 794.253906 268.132812 794.253906 268.796875 794.253906 270.125 C 795.582031 276.761719 796.910156 284.066406 796.910156 290.707031 C 796.910156 299.335938 798.238281 307.304688 796.910156 315.933594 C 795.582031 324.5625 794.917969 333.859375 793.589844 342.488281 C 793.589844 343.152344 793.589844 343.816406 792.925781 344.480469 C 789.605469 349.792969 788.28125 356.433594 786.289062 361.742188 C 784.296875 367.054688 782.304688 373.03125 778.984375 377.675781 C 775 383.652344 771.019531 390.292969 765.707031 395.601562 C 763.714844 397.59375 762.386719 400.25 761.058594 402.242188 C 760.394531 402.90625 759.730469 404.234375 759.066406 404.898438 C 752.429688 410.871094 747.117188 418.175781 740.476562 424.8125 C 735.167969 430.125 729.191406 434.773438 723.214844 439.421875 C 718.570312 442.738281 714.585938 446.722656 709.9375 450.042969 C 705.953125 452.699219 701.972656 455.355469 697.988281 458.007812 C 695.996094 459.335938 693.339844 461.328125 691.347656 462.65625 C 690.019531 463.984375 688.03125 465.3125 686.703125 465.976562 C 681.390625 467.96875 677.40625 471.289062 672.757812 473.945312 C 667.449219 476.597656 662.136719 479.253906 656.824219 481.910156 C 652.84375 483.902344 649.523438 485.230469 645.539062 487.222656 C 638.238281 490.542969 630.933594 494.523438 622.964844 498.507812 C 618.984375 500.5 615.664062 502.492188 611.679688 504.484375 C 603.050781 508.464844 594.417969 513.113281 585.125 517.097656 C 582.46875 518.425781 579.148438 519.089844 576.492188 520.417969 C 571.84375 522.410156 567.199219 523.738281 562.550781 525.0625 C 553.257812 527.71875 544.625 532.367188 534.667969 535.023438 C 526.699219 537.679688 518.734375 540.335938 510.765625 542.988281 C 508.109375 543.652344 506.117188 544.316406 503.464844 544.316406 C 499.480469 544.980469 496.160156 546.308594 492.839844 548.300781 C 492.839844 548.300781 492.175781 548.300781 491.511719 548.964844 C 484.875 550.292969 478.234375 551.621094 471.597656 552.285156 C 468.941406 552.949219 466.949219 553.613281 464.292969 553.613281 C 460.308594 554.941406 455.660156 555.605469 451.679688 556.933594 C 447.695312 558.257812 443.710938 558.921875 439.726562 558.257812 C 437.738281 558.257812 435.746094 559.585938 433.089844 560.25 C 429.105469 560.914062 425.121094 561.578125 421.140625 562.242188 C 415.828125 562.90625 409.851562 564.234375 404.542969 564.898438 C 399.230469 565.5625 393.917969 566.890625 388.605469 567.554688 C 386.617188 567.554688 383.960938 567.554688 381.96875 567.554688 C 378.648438 567.554688 375.328125 568.882812 372.007812 568.21875 C 370.019531 568.21875 367.363281 569.546875 365.371094 569.546875 C 364.042969 569.546875 362.050781 569.546875 360.722656 568.882812 C 359.394531 568.882812 358.066406 568.21875 357.402344 568.882812 C 355.410156 568.882812 352.09375 568.882812 348.109375 568.882812 C 344.125 568.882812 340.804688 570.210938 336.824219 570.210938 C 331.511719 570.875 326.863281 570.875 321.550781 570.875 C 314.914062 570.875 308.273438 570.875 301.636719 570.875 C 296.988281 570.875 292.339844 571.539062 287.695312 571.539062 C 280.390625 571.539062 273.75 570.875 266.449219 570.210938 C 263.792969 570.210938 260.472656 570.875 257.152344 570.875 C 252.507812 570.875 247.859375 570.210938 242.546875 570.210938 C 235.246094 569.546875 228.605469 568.21875 221.300781 567.554688 C 217.320312 566.890625 213.335938 567.554688 209.351562 566.890625 C 204.703125 566.226562 200.058594 565.5625 195.410156 564.234375 C 189.433594 562.90625 183.460938 560.914062 177.484375 560.914062 C 164.871094 559.585938 153.585938 554.277344 142.296875 550.957031 C 138.976562 550.292969 135.660156 548.964844 132.339844 548.300781 C 129.683594 547.636719 126.363281 546.308594 123.707031 544.980469 C 120.390625 543.652344 117.070312 541.660156 113.75 540.335938 C 111.757812 539.671875 109.101562 539.007812 107.109375 538.34375 C 95.824219 532.367188 84.539062 525.726562 73.25 519.089844 C 63.957031 513.113281 54.660156 506.476562 46.695312 499.171875 C 42.710938 495.851562 38.726562 493.195312 34.746094 489.878906 C 32.089844 487.886719 29.433594 485.230469 26.777344 482.574219 C 20.800781 476.597656 14.828125 469.960938 9.515625 463.984375 C 7.523438 461.328125 5.53125 458.671875 3.542969 456.019531 C -0.441406 452.035156 -3.097656 448.050781 -5.753906 443.402344 C -6.417969 442.738281 -7.082031 441.410156 -7.746094 440.75 C -8.410156 440.085938 -9.074219 439.421875 -9.738281 438.09375 C -14.382812 430.125 -19.03125 422.160156 -23.679688 414.191406 C -26.335938 409.542969 -27.664062 404.898438 -30.316406 400.25 C -36.292969 389.628906 -38.949219 377.675781 -42.933594 365.726562 C -44.925781 359.75 -46.25 353.113281 -46.914062 346.472656 C -46.914062 345.808594 -46.914062 345.144531 -46.914062 345.144531 C -48.90625 338.507812 -49.570312 331.203125 -50.234375 324.5625 C -50.234375 316.597656 -50.234375 309.292969 -50.898438 301.992188 C -50.898438 301.992188 -50.898438 301.328125 -50.898438 301.328125 C -51.5625 292.03125 -49.570312 282.738281 -49.570312 274.109375 C -49.570312 270.789062 -47.578125 267.46875 -46.914062 264.148438 C -45.589844 258.835938 -44.261719 253.527344 -42.269531 248.878906 C -38.949219 241.574219 -34.964844 233.609375 -32.308594 225.640625 C -28.992188 217.675781 -24.34375 211.035156 -19.695312 203.734375 C -16.375 198.421875 -11.730469 193.773438 -7.746094 189.128906 C -6.417969 187.800781 -5.753906 186.472656 -4.425781 185.144531 C -3.761719 185.144531 -3.761719 183.816406 -3.097656 183.816406 C 0.886719 181.160156 3.542969 176.511719 6.859375 172.53125 C 9.515625 168.546875 13.5 165.890625 16.820312 162.570312 C 20.140625 159.25 24.121094 156.597656 27.441406 153.277344 C 30.761719 150.621094 33.417969 147.300781 36.738281 144.644531 C 38.0625 143.316406 40.054688 141.988281 41.382812 140.664062 C 42.046875 140 43.375 139.335938 44.039062 138.671875 C 47.359375 136.015625 50.679688 133.359375 54 130.703125 C 54.660156 130.703125 54.660156 130.039062 55.324219 130.039062 C 59.972656 127.382812 63.957031 124.0625 68.605469 121.410156 C 73.914062 118.089844 78.5625 114.105469 83.875 110.785156 C 88.519531 107.464844 93.167969 104.8125 97.152344 101.492188 C 97.152344 101.492188 97.816406 101.492188 97.816406 100.828125 C 104.453125 95.515625 113.085938 92.195312 120.390625 87.550781 C 126.363281 83.566406 132.339844 80.246094 138.3125 77.589844 C 144.289062 74.933594 149.601562 70.953125 154.910156 68.296875 C 164.207031 63.648438 173.5 59 183.460938 55.019531 C 192.089844 51.035156 200.722656 47.714844 209.351562 43.730469 C 215.328125 41.738281 221.300781 39.75 227.277344 37.757812 C 235.246094 35.101562 243.875 32.445312 251.84375 29.789062 C 259.144531 27.796875 266.449219 25.140625 273.75 23.152344 C 278.398438 21.824219 283.046875 21.824219 287.695312 21.160156 C 291.675781 20.496094 296.324219 19.832031 300.308594 19.167969 C 301.636719 19.167969 302.964844 18.503906 304.292969 18.503906 C 313.585938 17.175781 322.214844 16.511719 331.511719 15.847656 C 336.824219 15.183594 342.132812 15.183594 347.445312 14.519531 C 351.429688 14.519531 356.074219 13.855469 360.058594 13.191406 C 363.378906 13.191406 366.035156 13.191406 369.355469 12.527344 C 376.65625 11.863281 383.960938 11.199219 391.261719 11.863281 C 394.582031 11.863281 397.902344 13.191406 401.222656 14.519531 C 403.214844 13.855469 404.542969 15.183594 405.203125 15.847656 Z M 294.996094 59.664062 C 296.324219 60.328125 296.988281 60.328125 298.316406 60.328125 C 298.980469 60.328125 299.644531 59.664062 300.308594 59.664062 C 300.308594 59 300.308594 57.671875 300.308594 57.011719 C 298.316406 55.683594 296.324219 56.347656 294.996094 59.664062 Z M 308.273438 59 C 307.609375 57.011719 306.28125 57.011719 304.953125 59 C 306.945312 59 307.609375 59 308.273438 59 Z M 308.273438 59 " fill-opacity="1" fill-rule="nonzero"/></g><path fill="#000000" d="M 294.996094 59.664062 C 296.988281 56.347656 298.316406 55.683594 299.644531 57.011719 C 300.308594 57.671875 300.308594 58.335938 299.644531 59.664062 C 299.644531 60.328125 298.316406 60.328125 297.652344 60.328125 C 296.988281 60.992188 296.324219 60.328125 294.996094 59.664062 Z M 294.996094 59.664062 " fill-opacity="1" fill-rule="nonzero"/><path fill="#000000" d="M 308.273438 59 C 307.609375 59 306.945312 59 304.953125 59 C 306.945312 57.011719 307.609375 57.011719 308.273438 59 Z M 308.273438 59 " fill-opacity="1" fill-rule="nonzero"/></svg>