<svg xmlns="http://www.w3.org/2000/svg" xmlns:xlink="http://www.w3.org/1999/xlink" width="500" zoomAndPan="magnify" viewBox="0 0 375 149.999998" height="200" preserveAspectRatio="xMidYMid meet" version="1.0"><defs><g/><clipPath id="8dcd8c2d96"><path d="M 59.753906 44.210938 L 82 44.210938 L 82 73 L 59.753906 73 Z M 59.753906 44.210938 " clip-rule="nonzero"/></clipPath><clipPath id="65e7ee6e18"><path d="M 60.230469 70.898438 C 65.78125 65.648438 68.554688 62.046875 71.03125 58.597656 C 73.957031 54.472656 77.929688 45.621094 79.957031 44.574219 C 80.554688 44.199219 81.15625 44.347656 81.457031 44.574219 C 81.753906 44.796875 82.054688 45.699219 81.832031 46.074219 C 81.605469 46.449219 80.480469 46.898438 80.105469 46.671875 C 79.730469 46.523438 79.355469 45.324219 79.582031 44.949219 C 79.730469 44.574219 80.628906 44.199219 81.003906 44.347656 C 81.378906 44.496094 81.90625 45.171875 81.90625 45.921875 C 81.832031 48.246094 76.503906 55.074219 73.429688 59.273438 C 70.429688 63.472656 66.082031 69.097656 63.605469 71.199219 C 62.480469 72.246094 61.429688 73.074219 60.679688 72.996094 C 60.304688 72.921875 59.855469 72.472656 59.78125 72.097656 C 59.707031 71.796875 60.230469 70.898438 60.230469 70.898438 " clip-rule="nonzero"/></clipPath><clipPath id="7cd3c17918"><path d="M 60.101562 49.414062 L 82.171875 49.414062 L 82.171875 68.304688 L 60.101562 68.304688 Z M 60.101562 49.414062 " clip-rule="nonzero"/></clipPath><clipPath id="6848fd1194"><path d="M 62.03125 49.523438 C 82.355469 67.148438 82.207031 67.671875 81.90625 67.972656 C 81.679688 68.273438 80.78125 68.347656 80.40625 68.199219 C 80.105469 68.046875 79.804688 67.597656 79.730469 67.222656 C 79.730469 66.847656 79.957031 66.324219 80.179688 66.097656 C 80.554688 65.871094 81.378906 65.796875 81.753906 66.023438 C 82.054688 66.324219 82.28125 67.523438 81.980469 67.824219 C 81.753906 68.199219 81.003906 68.273438 80.179688 68.046875 C 78.304688 67.523438 74.628906 63.996094 71.628906 61.523438 C 68.105469 58.523438 61.355469 53.199219 60.378906 51.171875 C 60.082031 50.496094 60.082031 49.898438 60.304688 49.671875 C 60.53125 49.371094 62.03125 49.523438 62.03125 49.523438 " clip-rule="nonzero"/></clipPath><clipPath id="964cd0d031"><path d="M 151.476562 37.070312 L 171.53125 37.070312 L 171.53125 66.5 L 151.476562 66.5 Z M 151.476562 37.070312 " clip-rule="nonzero"/></clipPath><clipPath id="3cd8b9d9aa"><path d="M 151.730469 64.523438 C 158.78125 55.898438 162.304688 47.121094 164.929688 43.148438 C 166.503906 40.671875 168.230469 38.199219 169.355469 37.523438 C 169.804688 37.222656 170.105469 37.074219 170.480469 37.148438 C 170.855469 37.296875 171.378906 37.898438 171.457031 38.347656 C 171.457031 38.722656 170.929688 39.398438 170.554688 39.546875 C 170.253906 39.699219 169.730469 39.621094 169.429688 39.398438 C 169.128906 39.097656 168.90625 38.273438 169.054688 37.898438 C 169.128906 37.597656 169.582031 37.222656 169.957031 37.148438 C 170.253906 37.074219 170.855469 37.222656 171.082031 37.523438 C 171.304688 37.824219 171.457031 38.347656 171.304688 38.949219 C 170.929688 40.296875 168.457031 42.023438 166.878906 44.347656 C 164.40625 48.097656 161.332031 55.824219 158.707031 59.722656 C 156.832031 62.496094 154.503906 65.574219 153.15625 66.246094 C 152.554688 66.472656 151.957031 66.472656 151.65625 66.171875 C 151.429688 65.949219 151.730469 64.523438 151.730469 64.523438 " clip-rule="nonzero"/></clipPath><clipPath id="8d0a87f26a"><path d="M 147.960938 41.808594 L 171.140625 41.808594 L 171.140625 62.785156 L 147.960938 62.785156 Z M 147.960938 41.808594 " clip-rule="nonzero"/></clipPath><clipPath id="44f3dea04c"><path d="M 149.554688 41.871094 C 165.378906 54.246094 170.480469 59.273438 170.929688 61.148438 C 171.15625 61.746094 170.929688 62.347656 170.628906 62.574219 C 170.253906 62.796875 169.128906 62.648438 168.90625 62.347656 C 168.605469 61.972656 168.90625 60.847656 169.207031 60.621094 C 169.582031 60.398438 170.707031 60.699219 170.929688 61.074219 C 171.15625 61.371094 171.003906 62.199219 170.707031 62.496094 C 170.40625 62.722656 169.878906 62.871094 169.28125 62.648438 C 167.03125 61.898438 161.105469 53.273438 157.207031 49.898438 C 154.128906 47.273438 149.105469 45.171875 148.207031 43.597656 C 147.90625 43.074219 147.90625 42.472656 148.128906 42.171875 C 148.355469 41.871094 149.554688 41.871094 149.554688 41.871094 " clip-rule="nonzero"/></clipPath><clipPath id="9f9a801f7d"><path d="M 284.296875 26.878906 L 306.488281 26.878906 L 306.488281 56.871094 L 284.296875 56.871094 Z M 284.296875 26.878906 " clip-rule="nonzero"/></clipPath><clipPath id="4857d811cb"><path d="M 284.332031 55.449219 C 293.40625 38.121094 294.457031 37.074219 296.105469 35.199219 C 298.355469 32.796875 302.554688 27.996094 304.28125 27.171875 C 304.957031 26.949219 305.480469 26.871094 305.855469 27.097656 C 306.15625 27.324219 306.53125 28.148438 306.378906 28.523438 C 306.230469 28.898438 305.105469 29.496094 304.730469 29.347656 C 304.355469 29.121094 303.980469 27.699219 304.207031 27.324219 C 304.429688 27.023438 305.332031 26.796875 305.707031 27.023438 C 306.082031 27.171875 306.53125 27.699219 306.378906 28.371094 C 306.082031 30.699219 296.253906 38.121094 292.804688 43.222656 C 289.804688 47.496094 287.929688 55.074219 286.28125 56.421875 C 285.753906 56.871094 285.15625 56.949219 284.855469 56.796875 C 284.480469 56.648438 284.332031 55.449219 284.332031 55.449219 " clip-rule="nonzero"/></clipPath><clipPath id="da5a4b8cc8"><path d="M 283 34.402344 L 307.09375 34.402344 L 307.09375 53.96875 L 283 53.96875 Z M 283 34.402344 " clip-rule="nonzero"/></clipPath><clipPath id="7293ccdd32"><path d="M 284.707031 34.523438 C 305.707031 50.574219 307.054688 51.773438 307.054688 52.671875 C 307.054688 53.199219 306.605469 53.796875 306.230469 53.871094 C 305.855469 54.023438 305.105469 53.722656 304.804688 53.421875 C 304.65625 53.199219 304.582031 52.597656 304.730469 52.296875 C 304.878906 51.921875 305.554688 51.472656 306.003906 51.546875 C 306.378906 51.546875 306.980469 52.148438 307.054688 52.523438 C 307.128906 52.898438 306.980469 53.421875 306.679688 53.648438 C 306.378906 53.871094 305.855469 54.023438 305.253906 53.796875 C 303.679688 53.273438 301.128906 49.671875 298.28125 47.273438 C 294.304688 43.972656 284.40625 38.421875 283.28125 36.097656 C 282.90625 35.496094 282.980469 34.824219 283.28125 34.523438 C 283.503906 34.296875 284.707031 34.523438 284.707031 34.523438 " clip-rule="nonzero"/></clipPath></defs><g fill="#ffffff" fill-opacity="1"><g transform="translate(3.897202, 83.26238)"><g><path d="M 21.421875 -1.390625 L 19.375 -33.046875 L 3.359375 -32 L 2.65625 -42.703125 L 36.890625 -44.921875 L 37.59375 -34.21875 L 21.578125 -33.1875 L 23.625 -1.53125 Z M 21.421875 -1.390625 "/></g></g></g><g fill="#ffffff" fill-opacity="1"><g transform="translate(48.942281, 80.342429)"><g><path d="M 19.703125 -44.734375 C 22.867188 -44.941406 25.84375 -44.347656 28.625 -42.953125 C 31.40625 -41.566406 33.664062 -39.585938 35.40625 -37.015625 C 37.144531 -34.441406 38.117188 -31.570312 38.328125 -28.40625 L 38.921875 -19.15625 C 39.128906 -15.976562 38.535156 -13 37.140625 -10.21875 C 35.742188 -7.4375 33.757812 -5.175781 31.1875 -3.4375 C 28.613281 -1.707031 25.742188 -0.738281 22.578125 -0.53125 C 19.421875 -0.332031 16.453125 -0.925781 13.671875 -2.3125 C 10.890625 -3.695312 8.628906 -5.675781 6.890625 -8.25 C 5.148438 -10.832031 4.175781 -13.710938 3.96875 -16.890625 L 3.375 -26.140625 C 3.164062 -29.304688 3.757812 -32.273438 5.15625 -35.046875 C 6.550781 -37.828125 8.535156 -40.085938 11.109375 -41.828125 C 13.679688 -43.566406 16.546875 -44.535156 19.703125 -44.734375 Z M 6.21875 -17.03125 C 6.40625 -14.257812 7.253906 -11.75 8.765625 -9.5 C 10.273438 -7.257812 12.238281 -5.535156 14.65625 -4.328125 C 17.082031 -3.128906 19.671875 -2.617188 22.421875 -2.796875 C 25.179688 -2.984375 27.6875 -3.828125 29.9375 -5.328125 C 32.1875 -6.835938 33.914062 -8.800781 35.125 -11.21875 C 36.332031 -13.644531 36.84375 -16.242188 36.65625 -19.015625 L 36.0625 -28.265625 C 35.882812 -31.023438 35.039062 -33.523438 33.53125 -35.765625 C 32.019531 -38.015625 30.050781 -39.738281 27.625 -40.9375 C 25.207031 -42.144531 22.617188 -42.65625 19.859375 -42.46875 C 17.109375 -42.289062 14.609375 -41.445312 12.359375 -39.9375 C 10.109375 -38.4375 8.378906 -36.472656 7.171875 -34.046875 C 5.960938 -31.628906 5.445312 -29.039062 5.625 -26.28125 Z M 6.21875 -17.03125 "/></g></g></g><g fill="#ffffff" fill-opacity="1"><g transform="translate(93.987361, 77.422478)"><g><path d="M 7.671875 -0.5 L 5.40625 -0.34375 L 2.65625 -42.703125 L 5.109375 -42.875 L 21.59375 -17.71875 L 34.625 -44.78125 L 36.890625 -44.921875 L 39.640625 -2.5625 L 37.375 -2.421875 L 34.921875 -40.28125 L 22.796875 -15.21875 L 20.65625 -15.078125 L 5.203125 -38.671875 Z M 7.671875 -0.5 "/></g></g></g><g fill="#ffffff" fill-opacity="1"><g transform="translate(139.032441, 74.502527)"><g><path d="M 19.703125 -44.734375 C 22.867188 -44.941406 25.84375 -44.347656 28.625 -42.953125 C 31.40625 -41.566406 33.664062 -39.585938 35.40625 -37.015625 C 37.144531 -34.441406 38.117188 -31.570312 38.328125 -28.40625 L 38.921875 -19.15625 C 39.128906 -15.976562 38.535156 -13 37.140625 -10.21875 C 35.742188 -7.4375 33.757812 -5.175781 31.1875 -3.4375 C 28.613281 -1.707031 25.742188 -0.738281 22.578125 -0.53125 C 19.421875 -0.332031 16.453125 -0.925781 13.671875 -2.3125 C 10.890625 -3.695312 8.628906 -5.675781 6.890625 -8.25 C 5.148438 -10.832031 4.175781 -13.710938 3.96875 -16.890625 L 3.375 -26.140625 C 3.164062 -29.304688 3.757812 -32.273438 5.15625 -35.046875 C 6.550781 -37.828125 8.535156 -40.085938 11.109375 -41.828125 C 13.679688 -43.566406 16.546875 -44.535156 19.703125 -44.734375 Z M 6.21875 -17.03125 C 6.40625 -14.257812 7.253906 -11.75 8.765625 -9.5 C 10.273438 -7.257812 12.238281 -5.535156 14.65625 -4.328125 C 17.082031 -3.128906 19.671875 -2.617188 22.421875 -2.796875 C 25.179688 -2.984375 27.6875 -3.828125 29.9375 -5.328125 C 32.1875 -6.835938 33.914062 -8.800781 35.125 -11.21875 C 36.332031 -13.644531 36.84375 -16.242188 36.65625 -19.015625 L 36.0625 -28.265625 C 35.882812 -31.023438 35.039062 -33.523438 33.53125 -35.765625 C 32.019531 -38.015625 30.050781 -39.738281 27.625 -40.9375 C 25.207031 -42.144531 22.617188 -42.65625 19.859375 -42.46875 C 17.109375 -42.289062 14.609375 -41.445312 12.359375 -39.9375 C 10.109375 -38.4375 8.378906 -36.472656 7.171875 -34.046875 C 5.960938 -31.628906 5.445312 -29.039062 5.625 -26.28125 Z M 6.21875 -17.03125 "/></g></g></g><g fill="#ffffff" fill-opacity="1"><g transform="translate(184.07752, 71.582576)"><g><path d="M 29.0625 -43.015625 C 31.5625 -42.046875 33.585938 -40.488281 35.140625 -38.34375 C 36.691406 -36.207031 37.554688 -33.773438 37.734375 -31.046875 C 37.929688 -27.890625 37.144531 -25 35.375 -22.375 C 33.613281 -19.75 31.257812 -17.929688 28.3125 -16.921875 L 40.0625 -2.59375 L 37.375 -2.421875 L 26 -16.359375 L 24.09375 -16.171875 L 8.8125 -15.171875 L 9.75 -0.625 L 7.484375 -0.484375 L 4.734375 -42.84375 L 20.875 -43.890625 C 22.65625 -44.003906 24.191406 -43.988281 25.484375 -43.84375 C 26.773438 -43.707031 27.96875 -43.429688 29.0625 -43.015625 Z M 24.546875 -18.46875 C 26.648438 -18.601562 28.554688 -19.253906 30.265625 -20.421875 C 31.984375 -21.597656 33.3125 -23.113281 34.25 -24.96875 C 35.195312 -26.820312 35.601562 -28.800781 35.46875 -30.90625 C 35.3125 -33.269531 34.550781 -35.359375 33.1875 -37.171875 C 31.820312 -38.992188 30.019531 -40.304688 27.78125 -41.109375 C 26.15625 -41.660156 23.90625 -41.84375 21.03125 -41.65625 L 7.15625 -40.75 L 8.65625 -17.4375 Z M 24.546875 -18.46875 "/></g></g></g><g fill="#ffffff" fill-opacity="1"><g transform="translate(229.1226, 68.662625)"><g><path d="M 29.0625 -43.015625 C 31.5625 -42.046875 33.585938 -40.488281 35.140625 -38.34375 C 36.691406 -36.207031 37.554688 -33.773438 37.734375 -31.046875 C 37.929688 -27.890625 37.144531 -25 35.375 -22.375 C 33.613281 -19.75 31.257812 -17.929688 28.3125 -16.921875 L 40.0625 -2.59375 L 37.375 -2.421875 L 26 -16.359375 L 24.09375 -16.171875 L 8.8125 -15.171875 L 9.75 -0.625 L 7.484375 -0.484375 L 4.734375 -42.84375 L 20.875 -43.890625 C 22.65625 -44.003906 24.191406 -43.988281 25.484375 -43.84375 C 26.773438 -43.707031 27.96875 -43.429688 29.0625 -43.015625 Z M 24.546875 -18.46875 C 26.648438 -18.601562 28.554688 -19.253906 30.265625 -20.421875 C 31.984375 -21.597656 33.3125 -23.113281 34.25 -24.96875 C 35.195312 -26.820312 35.601562 -28.800781 35.46875 -30.90625 C 35.3125 -33.269531 34.550781 -35.359375 33.1875 -37.171875 C 31.820312 -38.992188 30.019531 -40.304688 27.78125 -41.109375 C 26.15625 -41.660156 23.90625 -41.84375 21.03125 -41.65625 L 7.15625 -40.75 L 8.65625 -17.4375 Z M 24.546875 -18.46875 "/></g></g></g><g fill="#ffffff" fill-opacity="1"><g transform="translate(274.16768, 65.742674)"><g><path d="M 19.703125 -44.734375 C 22.867188 -44.941406 25.84375 -44.347656 28.625 -42.953125 C 31.40625 -41.566406 33.664062 -39.585938 35.40625 -37.015625 C 37.144531 -34.441406 38.117188 -31.570312 38.328125 -28.40625 L 38.921875 -19.15625 C 39.128906 -15.976562 38.535156 -13 37.140625 -10.21875 C 35.742188 -7.4375 33.757812 -5.175781 31.1875 -3.4375 C 28.613281 -1.707031 25.742188 -0.738281 22.578125 -0.53125 C 19.421875 -0.332031 16.453125 -0.925781 13.671875 -2.3125 C 10.890625 -3.695312 8.628906 -5.675781 6.890625 -8.25 C 5.148438 -10.832031 4.175781 -13.710938 3.96875 -16.890625 L 3.375 -26.140625 C 3.164062 -29.304688 3.757812 -32.273438 5.15625 -35.046875 C 6.550781 -37.828125 8.535156 -40.085938 11.109375 -41.828125 C 13.679688 -43.566406 16.546875 -44.535156 19.703125 -44.734375 Z M 6.21875 -17.03125 C 6.40625 -14.257812 7.253906 -11.75 8.765625 -9.5 C 10.273438 -7.257812 12.238281 -5.535156 14.65625 -4.328125 C 17.082031 -3.128906 19.671875 -2.617188 22.421875 -2.796875 C 25.179688 -2.984375 27.6875 -3.828125 29.9375 -5.328125 C 32.1875 -6.835938 33.914062 -8.800781 35.125 -11.21875 C 36.332031 -13.644531 36.84375 -16.242188 36.65625 -19.015625 L 36.0625 -28.265625 C 35.882812 -31.023438 35.039062 -33.523438 33.53125 -35.765625 C 32.019531 -38.015625 30.050781 -39.738281 27.625 -40.9375 C 25.207031 -42.144531 22.617188 -42.65625 19.859375 -42.46875 C 17.109375 -42.289062 14.609375 -41.445312 12.359375 -39.9375 C 10.109375 -38.4375 8.378906 -36.472656 7.171875 -34.046875 C 5.960938 -31.628906 5.445312 -29.039062 5.625 -26.28125 Z M 6.21875 -17.03125 "/></g></g></g><g fill="#ffffff" fill-opacity="1"><g transform="translate(319.212759, 62.822723)"><g><path d="M 39.859375 -45.125 L 31.234375 -2.03125 L 28.84375 -1.875 L 20.984375 -25.015625 L 16.1875 -1.046875 L 13.8125 -0.890625 L -0.3125 -42.515625 L 2 -42.671875 L 14.703125 -5.15625 L 19.546875 -29.265625 L 14.71875 -43.484375 L 17.03125 -43.640625 L 21.875 -29.40625 L 29.8125 -6.140625 L 37.546875 -44.96875 Z M 39.859375 -45.125 "/></g></g></g><g fill="#ffffff" fill-opacity="1"><g transform="translate(74.778651, 129.918683)"><g><path d="M 19.5625 -42.453125 C 16.84375 -42.273438 14.359375 -41.429688 12.109375 -39.921875 C 9.859375 -38.421875 8.117188 -36.457031 6.890625 -34.03125 C 5.671875 -31.613281 5.148438 -29.023438 5.328125 -26.265625 L 5.84375 -18.234375 C 6.03125 -15.347656 6.59375 -13 7.53125 -11.1875 C 8.832031 -8.613281 10.691406 -6.570312 13.109375 -5.0625 C 15.535156 -3.550781 18.195312 -2.789062 21.09375 -2.78125 L 19.8125 -22.5625 L 38.375 -23.765625 L 38.640625 -19.75 C 38.804688 -17.144531 38.570312 -14.804688 37.9375 -12.734375 C 36.894531 -9.273438 34.957031 -6.429688 32.125 -4.203125 C 29.289062 -1.984375 26.007812 -0.753906 22.28125 -0.515625 C 18.75 -0.285156 15.46875 -1.039062 12.4375 -2.78125 C 9.414062 -4.519531 7.128906 -6.957031 5.578125 -10.09375 C 4.460938 -12.289062 3.800781 -14.957031 3.59375 -18.09375 L 3.078125 -26.125 C 2.867188 -29.289062 3.457031 -32.257812 4.84375 -35.03125 C 6.238281 -37.8125 8.222656 -40.066406 10.796875 -41.796875 C 13.367188 -43.535156 16.238281 -44.507812 19.40625 -44.71875 C 22.039062 -44.894531 24.484375 -44.617188 26.734375 -43.890625 C 28.984375 -43.160156 30.9375 -42.007812 32.59375 -40.4375 C 33.9375 -39.132812 35.054688 -37.65625 35.953125 -36 C 36.859375 -34.351562 37.367188 -32.65625 37.484375 -30.90625 L 35.28125 -30.765625 C 35.15625 -32.273438 34.6875 -33.734375 33.875 -35.140625 C 33.070312 -36.554688 32.082031 -37.816406 30.90625 -38.921875 C 28.007812 -41.578125 24.226562 -42.753906 19.5625 -42.453125 Z M 36.265625 -21.421875 L 22.140625 -20.5 L 23.28125 -2.921875 C 26.1875 -3.304688 28.75 -4.394531 30.96875 -6.1875 C 33.195312 -7.988281 34.78125 -10.285156 35.71875 -13.078125 C 36.320312 -15.035156 36.546875 -17.210938 36.390625 -19.609375 Z M 36.265625 -21.421875 "/></g></g></g><g fill="#ffffff" fill-opacity="1"><g transform="translate(119.82373, 126.998732)"><g><path d="M 18.609375 -43.75 L 21 -43.90625 L 41.140625 -2.671875 L 38.71875 -2.515625 L 32.09375 -16.140625 L 11.203125 -14.78125 L 6.328125 -0.40625 L 3.953125 -0.25 Z M 11.96875 -17.03125 L 31.03125 -18.265625 L 19.953125 -40.90625 Z M 11.96875 -17.03125 "/></g></g></g><g fill="#ffffff" fill-opacity="1"><g transform="translate(164.86881, 124.078781)"><g><path d="M 7.671875 -0.5 L 5.40625 -0.34375 L 2.65625 -42.703125 L 5.109375 -42.875 L 21.59375 -17.71875 L 34.625 -44.78125 L 36.890625 -44.921875 L 39.640625 -2.5625 L 37.375 -2.421875 L 34.921875 -40.28125 L 22.796875 -15.21875 L 20.65625 -15.078125 L 5.203125 -38.671875 Z M 7.671875 -0.5 "/></g></g></g><g fill="#ffffff" fill-opacity="1"><g transform="translate(209.91389, 121.15883)"><g><path d="M 5.171875 -42.875 L 34.984375 -44.8125 L 35.140625 -42.578125 L 7.578125 -40.78125 L 8.6875 -23.609375 L 32.65625 -25.171875 L 32.796875 -22.90625 L 8.828125 -21.34375 L 10.03125 -2.90625 L 37.59375 -4.703125 L 37.734375 -2.453125 L 7.921875 -0.515625 Z M 5.171875 -42.875 "/></g></g></g><g fill="#ffffff" fill-opacity="1"><g transform="translate(254.958969, 118.238879)"><g><path d="M 22.125 -21.78125 C 18.632812 -22.25 15.769531 -22.828125 13.53125 -23.515625 C 11.300781 -24.210938 9.519531 -25.238281 8.1875 -26.59375 C 6.863281 -27.957031 6.128906 -29.773438 5.984375 -32.046875 C 5.835938 -34.398438 6.320312 -36.507812 7.4375 -38.375 C 8.550781 -40.25 10.207031 -41.742188 12.40625 -42.859375 C 14.601562 -43.984375 17.179688 -44.640625 20.140625 -44.828125 C 22.972656 -45.015625 25.613281 -44.582031 28.0625 -43.53125 C 30.519531 -42.488281 32.507812 -40.9375 34.03125 -38.875 C 35.550781 -36.820312 36.398438 -34.414062 36.578125 -31.65625 L 34.328125 -31.5 C 34.171875 -33.894531 33.441406 -35.96875 32.140625 -37.71875 C 30.847656 -39.476562 29.15625 -40.785156 27.0625 -41.640625 C 24.96875 -42.492188 22.6875 -42.84375 20.21875 -42.6875 C 18.019531 -42.539062 15.988281 -42.0625 14.125 -41.25 C 12.269531 -40.445312 10.789062 -39.296875 9.6875 -37.796875 C 8.582031 -36.296875 8.101562 -34.472656 8.25 -32.328125 C 8.375 -30.378906 9.035156 -28.863281 10.234375 -27.78125 C 11.441406 -26.695312 12.976562 -25.910156 14.84375 -25.421875 C 16.71875 -24.929688 19.320312 -24.445312 22.65625 -23.96875 C 26.019531 -23.488281 28.644531 -22.992188 30.53125 -22.484375 C 32.414062 -21.972656 34.046875 -21.03125 35.421875 -19.65625 C 36.796875 -18.28125 37.570312 -16.269531 37.75 -13.625 C 37.914062 -11 37.359375 -8.734375 36.078125 -6.828125 C 34.796875 -4.929688 33.023438 -3.457031 30.765625 -2.40625 C 28.515625 -1.363281 26.03125 -0.753906 23.3125 -0.578125 C 19.945312 -0.359375 16.941406 -0.796875 14.296875 -1.890625 C 11.660156 -2.992188 9.585938 -4.648438 8.078125 -6.859375 C 6.578125 -9.066406 5.726562 -11.648438 5.53125 -14.609375 L 7.78125 -14.75 C 7.945312 -12.15625 8.671875 -9.921875 9.953125 -8.046875 C 11.242188 -6.171875 13.015625 -4.765625 15.265625 -3.828125 C 17.523438 -2.898438 20.160156 -2.53125 23.171875 -2.71875 C 26.898438 -2.96875 29.9375 -4.0625 32.28125 -6 C 34.625 -7.945312 35.695312 -10.457031 35.5 -13.53125 C 35.351562 -15.644531 34.71875 -17.238281 33.59375 -18.3125 C 32.46875 -19.382812 31.082031 -20.117188 29.4375 -20.515625 C 27.800781 -20.921875 25.363281 -21.34375 22.125 -21.78125 Z M 22.125 -21.78125 "/></g></g></g><g clip-path="url(#8dcd8c2d96)"><g clip-path="url(#65e7ee6e18)"><path fill="#ffffff" d="M 56.78125 41.347656 L 84.980469 41.347656 L 84.980469 76.046875 L 56.78125 76.046875 Z M 56.78125 41.347656 " fill-opacity="1" fill-rule="nonzero"/></g></g><g clip-path="url(#7cd3c17918)"><g clip-path="url(#6848fd1194)"><path fill="#ffffff" d="M 57.304688 46.523438 L 85.160156 46.523438 L 85.160156 71.199219 L 57.304688 71.199219 Z M 57.304688 46.523438 " fill-opacity="1" fill-rule="nonzero"/></g></g><g clip-path="url(#964cd0d031)"><g clip-path="url(#3cd8b9d9aa)"><path fill="#ffffff" d="M 148.65625 34.148438 L 174.457031 34.148438 L 174.457031 69.21875 L 148.65625 69.21875 Z M 148.65625 34.148438 " fill-opacity="1" fill-rule="nonzero"/></g></g><g clip-path="url(#8d0a87f26a)"><g clip-path="url(#44f3dea04c)"><path fill="#ffffff" d="M 145.128906 38.871094 L 173.972656 38.871094 L 173.972656 65.722656 L 145.128906 65.722656 Z M 145.128906 38.871094 " fill-opacity="1" fill-rule="nonzero"/></g></g><g clip-path="url(#9f9a801f7d)"><g clip-path="url(#4857d811cb)"><path fill="#ffffff" d="M 281.332031 24.023438 L 309.457031 24.023438 L 309.457031 59.839844 L 281.332031 59.839844 Z M 281.332031 24.023438 " fill-opacity="1" fill-rule="nonzero"/></g></g><g clip-path="url(#da5a4b8cc8)"><g clip-path="url(#7293ccdd32)"><path fill="#ffffff" d="M 280.28125 31.523438 L 310.175781 31.523438 L 310.175781 56.949219 L 280.28125 56.949219 Z M 280.28125 31.523438 " fill-opacity="1" fill-rule="nonzero"/></g></g></svg>